<?xml version="1.0" encoding="utf-8"?>
<!-- Generator: Adobe Illustrator 27.5.0, SVG Export Plug-In . SVG Version: 6.00 Build 0)  -->
<svg version="1.1" xmlns="http://www.w3.org/2000/svg" xmlns:xlink="http://www.w3.org/1999/xlink" x="0px" y="0px"
	 viewBox="0 0 750 500" style="enable-background:new 0 0 750 500;" xml:space="preserve">
<g id="BACKGROUND">
	<rect style="fill:#F6EEE3;" width="750" height="500"/>
</g>
<g id="OBJECTS">
	<g>
		<g>
			<g>
				<g>
					<g>
						<g>
							<g>
								<g>
									<path style="fill:#EB8D2E;" d="M68.486,342.575c0.028-0.05,0.06-0.099,0.099-0.144c0.136-0.158,0.336-0.261,0.501-0.395
										c0.293-0.237,0.468-0.561,0.667-0.863c1.782-2.702,5.809-3.628,8.989-4.263c1.942-0.387,4.079-0.569,5.979-0.063
										c0.355,0.094,0.589,0.383,0.578,0.714l-0.044,1.374c-0.021,0.662,0.868,0.993,1.427,0.53l1.184-0.98
										c0.249-0.206,0.608-0.272,0.914-0.163c3.585,1.28,6.476,3.827,8.808,6.522c9.965,11.518,9.952,25.487,9.537,25.92
										c-0.382,0.398-20.689-9.83-24.695-11.087c-0.284-0.089-0.462-0.334-0.439-0.603l0.189-2.239
										c0.046-0.536-0.655-0.837-1.132-0.486l-2.132,1.574c-0.248,0.183-0.598,0.201-0.852,0.043
										c-5.277-3.286-11.069-8.597-9.725-14.944C68.371,342.871,68.41,342.715,68.486,342.575z"/>
								</g>
								<path style="fill:#111111;" d="M112.242,380.698c-0.194,0-0.378-0.113-0.46-0.303c-0.028-0.065-2.952-6.777-11.714-20.15
									c-8.679-13.248-30.274-17.918-30.491-17.964c-0.271-0.057-0.443-0.322-0.387-0.592c0.057-0.27,0.321-0.449,0.592-0.387
									c0.221,0.046,22.215,4.798,31.123,18.394c8.819,13.461,11.767,20.237,11.796,20.305c0.109,0.254-0.008,0.548-0.262,0.656
									C112.375,380.685,112.308,380.698,112.242,380.698z"/>
							</g>
							<g>
								<g>
									<path style="fill:#EB8D2E;" d="M157.028,324.862c-0.048-0.047-0.101-0.09-0.16-0.127c-0.205-0.129-0.464-0.176-0.694-0.269
										c-0.407-0.164-0.714-0.465-1.039-0.734c-2.912-2.404-7.721-2.06-11.484-1.679c-2.299,0.232-4.745,0.761-6.69,1.975
										c-0.364,0.227-0.526,0.629-0.401,0.994l0.52,1.517c0.25,0.731-0.628,1.404-1.41,1.08l-1.656-0.688
										c-0.349-0.145-0.771-0.095-1.075,0.131c-3.561,2.654-5.914,6.484-7.593,10.288c-7.174,16.256-2.38,31.832-1.769,32.173
										c0.562,0.313,19.712-18.042,23.751-20.815c0.286-0.197,0.401-0.531,0.283-0.823l-0.977-2.433
										c-0.234-0.583,0.444-1.158,1.096-0.929l2.917,1.026c0.339,0.119,0.736,0.02,0.965-0.243
										c4.761-5.47,9.404-13.376,5.734-19.995C157.257,325.153,157.16,324.992,157.028,324.862z"/>
								</g>
								<path style="fill:#111111;" d="M121.097,382.296c-0.018,0-0.036-0.001-0.055-0.003c-0.274-0.03-0.473-0.276-0.443-0.551
									c0.009-0.085,0.979-8.645,6.207-26.669c5.274-18.179,28.149-30.985,28.379-31.112c0.242-0.136,0.546-0.047,0.679,0.195
									c0.134,0.242,0.046,0.546-0.196,0.68c-0.227,0.126-22.745,12.737-27.903,30.517c-5.2,17.924-6.164,26.414-6.173,26.497
									C121.565,382.106,121.349,382.296,121.097,382.296z"/>
							</g>
							<g>
								<g>
									<path style="fill:#EB8D2E;" d="M79.256,289.34c0.075-0.053,0.155-0.099,0.242-0.136c0.304-0.129,0.661-0.137,0.991-0.211
										c0.583-0.132,1.06-0.47,1.555-0.76c4.431-2.598,10.815-1.094,15.786,0.231c3.037,0.81,6.207,2.049,8.558,4.101
										c0.439,0.384,0.57,0.958,0.324,1.422l-1.026,1.925c-0.495,0.928,0.539,2.022,1.66,1.755l2.373-0.565
										c0.499-0.119,1.056,0.039,1.415,0.409c4.207,4.335,6.539,9.988,7.97,15.461c6.115,23.385-3.695,43.266-4.59,43.591
										c-0.822,0.299-22.567-28.499-27.391-33.096c-0.342-0.326-0.424-0.8-0.202-1.167l1.839-3.055
										c0.441-0.732-0.346-1.651-1.271-1.485l-4.139,0.747c-0.481,0.087-0.992-0.132-1.243-0.536
										c-5.21-8.377-9.734-20-3.372-28.095C78.885,289.681,79.049,289.485,79.256,289.34z"/>
								</g>
								<path style="fill:#111111;" d="M115.185,374.08c-0.009,0-0.017,0-0.026-0.001c-0.275-0.014-0.488-0.249-0.474-0.524
									c0.006-0.114,0.551-11.735-2.555-36.954c-3.088-25.069-30.656-46.927-30.934-47.145c-0.218-0.17-0.256-0.484-0.086-0.702
									c0.17-0.218,0.485-0.254,0.702-0.085c0.282,0.221,28.171,22.327,31.31,47.809c3.119,25.323,2.568,37.013,2.562,37.128
									C115.67,373.873,115.45,374.08,115.185,374.08z"/>
							</g>
						</g>
					</g>
				</g>
			</g>
			<g>
				<g>
					<path style="fill:#111111;" d="M93.42,452.895c-1.96,0-3.555-1.595-3.555-3.555v-20.944h12.328v15.726
						C102.193,448.959,98.258,452.895,93.42,452.895z M90.865,429.396v19.944c0,1.408,1.146,2.555,2.555,2.555
						c4.286,0,7.773-3.487,7.773-7.773v-14.726H90.865z"/>
					<path style="fill:#111111;" d="M139.954,452.895c-4.838,0-8.774-3.935-8.774-8.773v-15.726h12.328v20.944
						C143.508,451.3,141.914,452.895,139.954,452.895z M132.18,429.396v14.726c0,4.286,3.487,7.773,7.774,7.773
						c1.408,0,2.554-1.147,2.554-2.555v-19.944H132.18z"/>
					<path style="fill:#111111;" d="M147.471,381.438H86.035l1.079,24.262l1.939,17.539c1.378,12.463,11.91,21.895,24.45,21.895h6.5
						c12.539,0,23.072-9.432,24.45-21.895L147.471,381.438z"/>
					<path style="fill:#2D2D30;" d="M147.915,384.346H85.664c-0.926,0-1.676-0.751-1.676-1.676v-6.799
						c0-0.926,0.751-1.676,1.676-1.676h62.251c0.926,0,1.676,0.751,1.676,1.676v6.799
						C149.591,383.596,148.84,384.346,147.915,384.346z"/>
				</g>
			</g>
		</g>
		<g>
			<g>
				<g>
					<g>
						<g>
							<g>
								<g>
									<path style="fill:#EB8D2E;" d="M683.306,335.841c-0.034-0.04-0.072-0.077-0.115-0.109c-0.15-0.115-0.347-0.169-0.519-0.258
										c-0.304-0.156-0.521-0.41-0.754-0.642c-2.087-2.068-5.838-2.139-8.781-2.109c-1.797,0.018-3.73,0.256-5.323,1.06
										c-0.298,0.15-0.452,0.45-0.381,0.742l0.296,1.212c0.143,0.584-0.586,1.044-1.168,0.737l-1.235-0.649
										c-0.26-0.137-0.59-0.128-0.842,0.026c-2.946,1.806-5.039,4.608-6.607,7.438c-6.703,12.092-4.084,24.499-3.635,24.806
										c0.413,0.282,16.544-12.593,19.869-14.458c0.236-0.132,0.348-0.383,0.278-0.618l-0.586-1.954
										c-0.141-0.468,0.426-0.866,0.915-0.643l2.188,1c0.254,0.116,0.569,0.067,0.765-0.121c4.074-3.903,8.229-9.703,5.85-15.09
										C683.463,336.083,683.4,335.951,683.306,335.841z"/>
								</g>
								<path style="fill:#111111;" d="M651.917,377.225c-0.024,0-0.049-0.002-0.073-0.006c-0.273-0.04-0.463-0.293-0.423-0.566
									c0.035-0.236,0.909-5.947,6.238-19.568c5.383-13.758,23.471-21.836,24.238-22.173c0.252-0.107,0.548,0.004,0.659,0.257
									c0.11,0.253-0.004,0.548-0.257,0.659c-0.185,0.081-18.479,8.252-23.709,21.622c-5.277,13.486-6.172,19.291-6.18,19.348
									C652.374,377.046,652.16,377.225,651.917,377.225z"/>
							</g>
						</g>
						<g>
							<g>
								<g>
									<path style="fill:#EB8D2E;" d="M628.916,318.08c0.022-0.028,0.048-0.055,0.077-0.079c0.102-0.083,0.237-0.126,0.354-0.191
										c0.207-0.115,0.352-0.297,0.508-0.463c1.401-1.485,4.003-1.622,6.046-1.671c1.249-0.03,2.596,0.09,3.721,0.611
										c0.21,0.097,0.324,0.302,0.282,0.506l-0.177,0.849c-0.085,0.409,0.431,0.711,0.829,0.484l0.842-0.48
										c0.177-0.101,0.407-0.103,0.585-0.002c2.088,1.185,3.607,3.081,4.762,5.009c4.938,8.237,3.411,16.913,3.106,17.137
										c-0.28,0.206-11.782-8.355-14.134-9.571c-0.167-0.086-0.251-0.258-0.207-0.422l0.361-1.37
										c0.086-0.328-0.316-0.591-0.65-0.425l-1.495,0.746c-0.174,0.087-0.393,0.06-0.534-0.066
										c-2.92-2.614-5.941-6.543-4.416-10.34C628.812,318.252,628.853,318.159,628.916,318.08z"/>
								</g>
								<path style="fill:#111111;" d="M652.005,346.705c-0.227,0-0.432-0.154-0.486-0.385c-0.011-0.044-1.096-4.521-5.075-13.759
									c-3.921-9.1-16.757-14.322-16.886-14.374c-0.257-0.103-0.381-0.394-0.278-0.649c0.102-0.256,0.394-0.383,0.649-0.278
									c0.543,0.217,13.348,5.424,17.433,14.905c4.022,9.336,5.087,13.741,5.13,13.925c0.063,0.269-0.103,0.538-0.371,0.602
									C652.082,346.7,652.043,346.705,652.005,346.705z"/>
							</g>
						</g>
						<g>
							<g>
								<g>
									<path style="fill:#EB8D2E;" d="M628.676,355.241c0.023-0.028,0.048-0.055,0.077-0.079c0.102-0.083,0.237-0.126,0.354-0.191
										c0.208-0.115,0.352-0.297,0.508-0.463c1.401-1.485,4.003-1.622,6.047-1.671c1.248-0.03,2.596,0.09,3.721,0.611
										c0.21,0.097,0.324,0.302,0.282,0.506l-0.177,0.849c-0.085,0.409,0.431,0.711,0.828,0.485l0.842-0.48
										c0.177-0.101,0.407-0.103,0.585-0.002c2.087,1.185,3.607,3.081,4.762,5.009c4.938,8.237,3.411,16.913,3.106,17.137
										c-0.28,0.206-11.782-8.355-14.134-9.571c-0.167-0.086-0.251-0.258-0.207-0.422l0.361-1.37
										c0.086-0.328-0.316-0.591-0.65-0.425l-1.495,0.746c-0.174,0.087-0.393,0.06-0.534-0.066
										c-2.92-2.614-5.941-6.543-4.416-10.34C628.572,355.412,628.613,355.319,628.676,355.241z"/>
								</g>
								<path style="fill:#111111;" d="M651.765,383.866c-0.227,0-0.432-0.154-0.486-0.385c-0.011-0.044-1.095-4.521-5.075-13.759
									c-3.923-9.107-16.757-14.322-16.886-14.374c-0.257-0.102-0.381-0.393-0.278-0.649c0.103-0.256,0.395-0.381,0.649-0.278
									c0.543,0.217,13.349,5.423,17.433,14.905c4.022,9.335,5.087,13.742,5.13,13.925c0.063,0.268-0.103,0.538-0.371,0.602
									C651.841,383.862,651.803,383.866,651.765,383.866z"/>
							</g>
						</g>
						<g>
							<g>
								<g>
									<path style="fill:#EB8D2E;" d="M629.793,281.295c0.043-0.035,0.09-0.066,0.141-0.093c0.179-0.092,0.396-0.112,0.592-0.171
										c0.348-0.105,0.623-0.331,0.911-0.529c2.579-1.769,6.52-1.132,9.596-0.541c1.879,0.36,3.858,0.976,5.373,2.121
										c0.283,0.214,0.388,0.557,0.258,0.849l-0.54,1.213c-0.26,0.585,0.415,1.204,1.084,0.994l1.417-0.445
										c0.298-0.094,0.643-0.022,0.877,0.187c2.742,2.451,4.402,5.783,5.507,9.044c4.723,13.936-0.375,26.432-0.904,26.668
										c-0.486,0.217-14.935-16.331-18.062-18.914c-0.221-0.183-0.292-0.467-0.173-0.7l0.985-1.935
										c0.236-0.464-0.282-0.988-0.836-0.847l-2.481,0.632c-0.288,0.073-0.608-0.038-0.778-0.271
										c-3.525-4.862-6.775-11.724-3.261-16.915C629.583,281.519,629.674,281.393,629.793,281.295z"/>
								</g>
								<path style="fill:#111111;" d="M655.249,331.397c-0.272,0-0.494-0.218-0.5-0.49c-0.001-0.069-0.174-7.14-3.144-22.297
									c-2.941-15.007-20.56-27.046-20.737-27.166c-0.229-0.154-0.29-0.465-0.135-0.693c0.154-0.229,0.466-0.289,0.693-0.135
									c0.182,0.122,18.139,12.386,21.159,27.803c2.991,15.259,3.161,22.398,3.163,22.469c0.005,0.276-0.214,0.504-0.49,0.51
									C655.256,331.397,655.252,331.397,655.249,331.397z"/>
							</g>
						</g>
						<path style="fill:#111111;" d="M651.916,384.342c-0.276,0-0.5-0.224-0.5-0.5v-26.575c0-17.992,4.357-35.955,12.602-51.947
							l6.251-12.125c0.126-0.245,0.429-0.342,0.674-0.215c0.245,0.126,0.342,0.428,0.215,0.674l-6.251,12.125
							c-8.171,15.851-12.49,33.655-12.49,51.488v26.575C652.416,384.118,652.192,384.342,651.916,384.342z"/>
						<g>
							<g>
								<g>
									<path style="fill:#EB8D2E;" d="M685.991,289.892c-0.024-0.034-0.052-0.065-0.084-0.094c-0.112-0.1-0.264-0.156-0.395-0.237
										c-0.231-0.143-0.386-0.359-0.556-0.557c-1.521-1.772-4.488-2.069-6.822-2.234c-1.425-0.101-2.972-0.036-4.286,0.499
										c-0.245,0.1-0.387,0.328-0.349,0.563l0.157,0.98c0.076,0.472-0.531,0.79-0.973,0.509l-0.937-0.594
										c-0.197-0.125-0.46-0.139-0.669-0.033c-2.45,1.242-4.288,3.328-5.712,5.47c-6.086,9.151-4.806,19.15-4.47,19.422
										c0.309,0.25,13.916-8.918,16.67-10.182c0.195-0.09,0.3-0.281,0.26-0.472l-0.339-1.586c-0.081-0.38,0.393-0.659,0.766-0.451
										l1.669,0.933c0.194,0.108,0.446,0.09,0.614-0.047c3.478-2.832,7.142-7.161,5.603-11.582
										C686.1,290.094,686.058,289.985,685.991,289.892z"/>
								</g>
								<path style="fill:#111111;" d="M658.09,321.304c-0.046,0-0.092-0.006-0.138-0.02c-0.266-0.076-0.419-0.354-0.343-0.618
									c0.06-0.207,1.512-5.182,6.606-15.63c5.165-10.595,20.054-15.85,20.686-16.068c0.257-0.089,0.544,0.048,0.636,0.309
									c0.09,0.262-0.048,0.546-0.309,0.637c-0.151,0.052-15.132,5.342-20.114,15.561c-5.048,10.354-6.529,15.418-6.544,15.468
									C658.507,321.161,658.308,321.304,658.09,321.304z"/>
							</g>
						</g>
						<g>
							<g>
								<g>
									<path style="fill:#EB8D2E;" d="M684.577,316.28c-0.014-0.034-0.031-0.068-0.053-0.099c-0.076-0.111-0.196-0.192-0.292-0.29
										c-0.17-0.173-0.259-0.393-0.365-0.601c-0.946-1.861-3.459-2.747-5.45-3.385c-1.216-0.389-2.573-0.661-3.827-0.475
										c-0.234,0.035-0.405,0.203-0.423,0.415l-0.071,0.884c-0.034,0.426-0.628,0.573-0.953,0.236l-0.688-0.714
										c-0.145-0.15-0.37-0.218-0.574-0.171c-2.39,0.56-4.428,1.982-6.118,3.539c-7.223,6.657-8.229,15.609-7.994,15.917
										c0.216,0.283,13.972-4.796,16.63-5.31c0.188-0.036,0.32-0.181,0.325-0.355l0.041-1.448c0.01-0.347,0.481-0.489,0.76-0.229
										l1.252,1.164c0.146,0.135,0.368,0.172,0.543,0.09c3.62-1.722,7.718-4.705,7.318-8.87
										C684.629,316.478,684.616,316.375,684.577,316.28z"/>
								</g>
								<path style="fill:#111111;" d="M653.805,337.71c-0.085,0-0.17-0.021-0.248-0.066c-0.239-0.137-0.323-0.441-0.187-0.682
									c0.096-0.167,2.413-4.183,9.052-12.18c6.743-8.121,20.805-9.532,21.4-9.589c0.268-0.016,0.518,0.177,0.545,0.451
									c0.025,0.274-0.176,0.519-0.451,0.545c-0.142,0.013-14.248,1.431-20.725,9.231c-6.572,7.917-8.93,11.997-8.952,12.037
									C654.146,337.619,653.977,337.71,653.805,337.71z"/>
							</g>
						</g>
					</g>
				</g>
			</g>
			<g>
				<g>
					<polygon style="fill:#111111;" points="668.781,435.935 635.229,435.935 628.229,384.192 673.781,384.192 					"/>
					<path style="fill:#2D2D30;" d="M675.011,386.502h-47.176c-0.926,0-1.677-0.751-1.677-1.677v-4.466
						c0-0.926,0.751-1.677,1.677-1.677h47.176c0.926,0,1.676,0.75,1.676,1.676v4.467
						C676.687,385.751,675.937,386.502,675.011,386.502z"/>
				</g>
			</g>
			<path style="fill:#111111;" d="M637.533,451.133c-1.319,0-2.393-1.105-2.393-2.464v-13.644h8.02v10.288
				C643.16,448.522,640.636,451.133,637.533,451.133z M636.141,436.025v12.644c0,0.808,0.625,1.464,1.393,1.464
				c2.552,0,4.627-2.162,4.627-4.819v-9.288H636.141z"/>
			<path style="fill:#111111;" d="M666.369,451.133c-3.102,0-5.627-2.61-5.627-5.819v-10.288h8.019v13.644
				C668.762,450.027,667.688,451.133,666.369,451.133z M661.742,436.025v9.288c0,2.657,2.075,4.819,4.627,4.819
				c0.768,0,1.393-0.656,1.393-1.464v-12.644H661.742z"/>
		</g>
	</g>
	<g style="opacity:0.56;">
		<g>
			<g>
				<path style="fill:#F6EEE3;" d="M355.809,52.609h-11.011c-2.741,0-4.963-2.222-4.963-4.963l0,0c0-2.741,2.222-4.963,4.963-4.963
					h11.011c2.741,0,4.963,2.222,4.963,4.963l0,0C360.772,50.387,358.55,52.609,355.809,52.609z"/>
				<path style="fill:#5C69AB;" d="M355.809,53.109h-11.011c-3.012,0-5.463-2.451-5.463-5.463s2.451-5.463,5.463-5.463h11.011
					c3.013,0,5.463,2.451,5.463,5.463S358.821,53.109,355.809,53.109z M344.798,43.182c-2.461,0-4.463,2.003-4.463,4.463
					s2.002,4.463,4.463,4.463h11.011c2.461,0,4.463-2.002,4.463-4.463s-2.002-4.463-4.463-4.463H344.798z"/>
			</g>
			<g>
				<circle style="fill:#F6EEE3;" cx="350.303" cy="76.846" r="10.337"/>
				<path style="fill:#5C69AB;" d="M350.303,87.684c-5.976,0-10.837-4.862-10.837-10.837s4.861-10.837,10.837-10.837
					c5.976,0,10.837,4.861,10.837,10.837S356.279,87.684,350.303,87.684z M350.303,67.009c-5.424,0-9.837,4.413-9.837,9.837
					s4.413,9.837,9.837,9.837s9.837-4.413,9.837-9.837S355.727,67.009,350.303,67.009z"/>
			</g>
			<g>
				<line style="fill:#F6EEE3;" x1="349.678" y1="42.682" x2="349.678" y2="0"/>
				<rect x="349.178" style="fill:#5C69AB;" width="1" height="42.682"/>
			</g>
			<g>
				<path style="fill:#F6EEE3;" d="M381.336,77.646c0,0.263-62.065,0.273-62.065,0c0-17.139,13.894-31.033,31.033-31.033
					C367.442,46.613,381.336,60.507,381.336,77.646z"/>
				<path style="fill:#5C69AB;" d="M349.858,78.347c-7.685,0-15.332-0.016-21.059-0.049c-10.028-0.059-10.028-0.059-10.028-0.651
					c0-17.387,14.146-31.533,31.533-31.533s31.533,14.146,31.533,31.533c0,0.591,0,0.591-10.362,0.65
					C365.561,78.33,357.69,78.347,349.858,78.347z M319.774,77.19c5.192,0.224,55.84,0.224,61.059-0.001
					c-0.245-16.627-13.846-30.076-30.53-30.076C333.62,47.113,320.018,60.563,319.774,77.19z"/>
			</g>
		</g>
		<g>
			<g>
				<path style="fill:#F6EEE3;" d="M467.827,83.534h-11.011c-2.741,0-4.963-2.222-4.963-4.963l0,0c0-2.741,2.222-4.963,4.963-4.963
					h11.011c2.741,0,4.963,2.222,4.963,4.963l0,0C472.791,81.312,470.569,83.534,467.827,83.534z"/>
				<path style="fill:#5C69AB;" d="M467.827,84.035h-11.011c-3.013,0-5.463-2.451-5.463-5.463c0-3.013,2.45-5.463,5.463-5.463
					h11.011c3.013,0,5.464,2.451,5.464,5.463C473.291,81.584,470.84,84.035,467.827,84.035z M456.816,74.108
					c-2.461,0-4.463,2.002-4.463,4.463c0,2.461,2.002,4.463,4.463,4.463h11.011c2.461,0,4.464-2.002,4.464-4.463
					c0-2.461-2.003-4.463-4.464-4.463H456.816z"/>
			</g>
			<g>
				<circle style="fill:#F6EEE3;" cx="462.322" cy="107.772" r="10.337"/>
				<path style="fill:#5C69AB;" d="M462.322,118.609c-5.976,0-10.837-4.861-10.837-10.837c0-5.976,4.861-10.837,10.837-10.837
					c5.976,0,10.837,4.862,10.837,10.837C473.159,113.748,468.298,118.609,462.322,118.609z M462.322,97.935
					c-5.424,0-9.837,4.413-9.837,9.837c0,5.424,4.413,9.837,9.837,9.837c5.424,0,9.837-4.413,9.837-9.837
					C472.159,102.348,467.746,97.935,462.322,97.935z"/>
			</g>
			<g>
				<line style="fill:#F6EEE3;" x1="461.697" y1="73.608" x2="461.697" y2="1.209"/>
				<rect x="461.196" y="1.209" style="fill:#5C69AB;" width="1" height="72.399"/>
			</g>
			<g>
				<path style="fill:#F6EEE3;" d="M493.355,108.571c0,0.263-62.065,0.273-62.065,0c0-17.139,13.894-31.033,31.033-31.033
					C479.461,77.539,493.355,91.433,493.355,108.571z"/>
				<path style="fill:#5C69AB;" d="M461.876,109.272c-7.684,0-15.332-0.016-21.059-0.049c-10.028-0.059-10.028-0.059-10.028-0.651
					c0-17.387,14.146-31.533,31.533-31.533c17.387,0,31.532,14.146,31.532,31.533c0,0.591,0,0.591-10.362,0.65
					C477.58,109.255,469.709,109.272,461.876,109.272z M431.792,108.115c5.195,0.224,55.841,0.224,61.06-0.001
					c-0.246-16.625-13.847-30.076-30.529-30.076C445.639,78.039,432.037,91.488,431.792,108.115z"/>
			</g>
		</g>
		<g>
			<path style="fill:#5C69AB;" d="M162.505,96.762h-23.243c-0.42,0-0.762-0.342-0.762-0.762V85.864c0-0.421,0.342-0.762,0.762-0.762
				h23.243c0.42,0,0.762,0.342,0.762,0.762V96C163.267,96.42,162.925,96.762,162.505,96.762z M139.5,95.762h22.767v-9.66H139.5
				V95.762z"/>
			<path style="fill:#5C69AB;" d="M189.417,96.762h-23.243c-0.42,0-0.762-0.342-0.762-0.762V85.864c0-0.421,0.342-0.762,0.762-0.762
				h23.243c0.42,0,0.762,0.342,0.762,0.762V96C190.18,96.42,189.838,96.762,189.417,96.762z M166.413,95.762h22.767v-9.66h-22.767
				V95.762z"/>
			<path style="fill:#5C69AB;" d="M173.573,83.83H150.33c-0.42,0-0.762-0.342-0.762-0.762V72.932c0-0.42,0.342-0.762,0.762-0.762
				h23.243c0.42,0,0.762,0.342,0.762,0.762v10.136C174.335,83.488,173.993,83.83,173.573,83.83z M150.568,82.83h22.767v-9.66
				h-22.767V82.83z"/>
			<path style="fill:#5C69AB;" d="M173.573,110.16H150.33c-0.42,0-0.762-0.342-0.762-0.762V99.262c0-0.42,0.342-0.762,0.762-0.762
				h23.243c0.42,0,0.762,0.342,0.762,0.762v10.136C174.335,109.818,173.993,110.16,173.573,110.16z M150.568,109.16h22.767V99.5
				h-22.767V109.16z"/>
		</g>
		<path style="fill:#5C69AB;" d="M193.689,75.324c-0.677,0-1.228-0.551-1.228-1.228c0-0.677,0.551-1.228,1.228-1.228
			c0.677,0,1.227,0.551,1.227,1.228C194.916,74.773,194.366,75.324,193.689,75.324z M193.689,73.869
			c-0.126,0-0.228,0.102-0.228,0.228c-0.001,0.25,0.455,0.251,0.456,0C193.916,73.971,193.814,73.869,193.689,73.869z"/>
		<g>
			<path style="fill:#5C69AB;" d="M64.98,244.448h-14.68c-0.42,0-0.762-0.342-0.762-0.762V233.55c0-0.42,0.342-0.762,0.762-0.762
				h14.68c0.42,0,0.762,0.342,0.762,0.762v10.136C65.743,244.106,65.401,244.448,64.98,244.448z M50.539,243.448h14.204v-9.66
				H50.539V243.448z"/>
			<path style="fill:#5C69AB;" d="M91.893,244.448H68.65c-0.42,0-0.762-0.342-0.762-0.762V233.55c0-0.42,0.342-0.762,0.762-0.762
				h23.243c0.42,0,0.762,0.342,0.762,0.762v10.136C92.655,244.106,92.313,244.448,91.893,244.448z M68.888,243.448h22.767v-9.66
				H68.888V243.448z"/>
			<path style="fill:#5C69AB;" d="M76.048,231.516H52.806c-0.42,0-0.762-0.342-0.762-0.762v-10.136c0-0.42,0.342-0.762,0.762-0.762
				h23.243c0.421,0,0.762,0.342,0.762,0.762v10.136C76.811,231.174,76.469,231.516,76.048,231.516z M53.043,230.516h22.767v-9.66
				H53.043V230.516z"/>
			<path style="fill:#5C69AB;" d="M76.048,257.847H52.806c-0.42,0-0.762-0.342-0.762-0.763v-10.136c0-0.42,0.342-0.762,0.762-0.762
				h23.243c0.421,0,0.762,0.342,0.762,0.762v10.136C76.811,257.505,76.469,257.847,76.048,257.847z M53.043,256.847h22.767v-9.661
				H53.043V256.847z"/>
		</g>
		<g>
			<path style="fill:#5C69AB;" d="M693.951,137.652h-23.529c-0.42,0-0.762-0.342-0.762-0.762v-10.136
				c0-0.42,0.342-0.762,0.762-0.762h23.529c0.421,0,0.763,0.342,0.763,0.762v10.136
				C694.714,137.311,694.372,137.652,693.951,137.652z M670.66,136.652h23.054v-9.66H670.66V136.652z"/>
			<path style="fill:#5C69AB;" d="M666.752,137.652H643.51c-0.421,0-0.763-0.342-0.763-0.762v-10.136
				c0-0.42,0.342-0.762,0.763-0.762h23.242c0.421,0,0.763,0.342,0.763,0.762v10.136
				C667.515,137.311,667.173,137.652,666.752,137.652z M643.747,136.652h22.768v-9.66h-22.768V136.652z"/>
			<path style="fill:#5C69AB;" d="M682.597,150.585h-23.243c-0.42,0-0.762-0.342-0.762-0.762v-10.136
				c0-0.42,0.342-0.762,0.762-0.762h23.243c0.42,0,0.762,0.342,0.762,0.762v10.136C683.358,150.243,683.017,150.585,682.597,150.585
				z M659.592,149.585h22.767v-9.66h-22.767V149.585z"/>
			<path style="fill:#5C69AB;" d="M682.597,124.254h-23.243c-0.42,0-0.762-0.342-0.762-0.762v-10.136
				c0-0.42,0.342-0.762,0.762-0.762h23.243c0.42,0,0.762,0.342,0.762,0.762v10.136C683.358,123.913,683.017,124.254,682.597,124.254
				z M659.592,123.254h22.767v-9.66h-22.767V123.254z"/>
		</g>
		<path style="fill:#5C69AB;" d="M88.165,223.01c-0.677,0-1.228-0.551-1.228-1.228c0-0.677,0.551-1.227,1.228-1.227
			c0.677,0,1.228,0.551,1.228,1.227C89.393,222.46,88.842,223.01,88.165,223.01z M88.165,221.555c-0.125,0-0.228,0.102-0.228,0.227
			c0,0.251,0.455,0.25,0.456,0C88.393,221.657,88.29,221.555,88.165,221.555z"/>
	</g>
	<g>
		<g>
			<path style="fill:#111111;" d="M470.985,452.021c-0.042,0-0.086-0.006-0.129-0.017c-0.267-0.071-0.426-0.346-0.354-0.612
				L502.97,329.69c0.07-0.266,0.341-0.423,0.612-0.354c0.267,0.071,0.426,0.346,0.354,0.612l-32.468,121.701
				C471.409,451.873,471.207,452.021,470.985,452.021z"/>
			<path style="fill:#111111;" d="M570.686,450.881c-0.215,0-0.413-0.139-0.478-0.354l-36.629-120.562
				c-0.08-0.265,0.069-0.544,0.333-0.624c0.267-0.082,0.544,0.069,0.624,0.333l36.629,120.562c0.08,0.265-0.069,0.544-0.333,0.624
				C570.783,450.874,570.734,450.881,570.686,450.881z"/>
			<path style="fill:#E16C2E;" d="M553.389,171.915h-16.317c-16.884,0-30.572,13.688-30.572,30.572v112.231h-30.52v17.352h90.629
				c9.583,0,17.352-7.769,17.352-17.352V202.487C583.961,185.603,570.274,171.915,553.389,171.915z"/>
		</g>
		<g>
			<g>
				<path style="fill:#E8A185;" d="M495.474,202.34l-13.998,11.73l-13.786-28.326l0.029-0.026c-0.211-0.406-0.423-0.811-0.634-1.216
					l-0.003-0.006l0,0c-3.349-6.429-6.71-12.853-10.023-19.301c-0.246-0.479-0.499-0.967-0.886-1.342
					c-0.572-0.552-1.422-0.799-2.201-0.64c-0.779,0.159-1.464,0.72-1.773,1.453c-0.362,0.857-0.211,1.845,0.076,2.73
					c0.379,1.167,0.78,2.32,1.15,3.49c0.363,1.15-1.095,1.989-1.906,1.094c-2.952-3.253-5.9-6.51-8.844-9.771
					c-0.58-0.643-1.234-1.326-2.092-1.443c-1.171-0.159-2.306,1.064-2.06,2.22c0.1,0.469,0.376,0.879,0.646,1.275
					c1.69,2.479,3.277,5.031,5.07,7.437c1.395,1.87,2.006,3.272,3.134,4.539c-0.37-0.416-0.866-1.08-1.237-1.495
					c-2.245-2.516-4.517-5.003-6.653-7.608c-0.332-0.405-0.867-0.738-1.363-0.908c-0.326-0.112-0.689-0.122-1.017-0.016
					c-0.329,0.106-0.624,0.335-0.779,0.644c-0.182,0.363-0.158,0.802-0.026,1.187c0.227,0.659,0.556,1.288,0.967,1.846
					c1.181,1.603,2.375,3.197,3.551,4.805c1.198,1.638,2.559,3.22,3.645,4.936c-0.301-0.475-0.769-0.881-1.159-1.279
					c-0.818-0.837-1.656-1.656-2.503-2.464c-0.849-0.811-1.756-1.88-3.011-1.961c-0.53-0.034-1.126,0.18-1.338,0.667
					c-0.098,0.224-0.103,0.48-0.06,0.721c0.144,0.796,0.752,1.417,1.268,2c0.503,0.57,1.005,1.14,1.507,1.71
					c1.016,1.153,2.034,2.305,3.066,3.443c0.582,0.658,1.163,1.318,1.745,1.976l-2.787-1.852c-1.059-0.728-3.276-1.461-3.83-0.301
					c-0.319,0.666-0.102,1.466,0.51,1.88l15.56,12.306l14.535,46.624c3.022,9.072,14.261,12.207,21.542,6.008l21.923-18.665
					L495.474,202.34z"/>
				<path style="opacity:0.2;fill:#E06A4B;" d="M495.474,202.34l-13.998,11.73l-13.786-28.326l0.029-0.026
					c-0.211-0.406-0.423-0.811-0.634-1.216l-0.003-0.006l0,0c-3.349-6.429-6.71-12.853-10.023-19.301
					c-0.246-0.479-0.499-0.967-0.886-1.342c-0.572-0.552-1.422-0.799-2.201-0.64c-0.779,0.159-1.464,0.72-1.773,1.453
					c-0.362,0.857-0.211,1.845,0.076,2.73c0.379,1.167,0.78,2.32,1.15,3.49c0.363,1.15-1.095,1.989-1.906,1.094
					c-2.952-3.253-5.9-6.51-8.844-9.771c-0.58-0.643-1.234-1.326-2.092-1.443c-1.171-0.159-2.306,1.064-2.06,2.22
					c0.1,0.469,0.376,0.879,0.646,1.275c1.69,2.479,3.277,5.031,5.07,7.437c1.395,1.87,2.006,3.272,3.134,4.539
					c-0.37-0.416-0.866-1.08-1.237-1.495c-2.245-2.516-4.517-5.003-6.653-7.608c-0.332-0.405-0.867-0.738-1.363-0.908
					c-0.326-0.112-0.689-0.122-1.017-0.016c-0.329,0.106-0.624,0.335-0.779,0.644c-0.182,0.363-0.158,0.802-0.026,1.187
					c0.227,0.659,0.556,1.288,0.967,1.846c1.181,1.603,2.375,3.197,3.551,4.805c1.198,1.638,2.559,3.22,3.645,4.936
					c-0.301-0.475-0.769-0.881-1.159-1.279c-0.818-0.837-1.656-1.656-2.503-2.464c-0.849-0.811-1.756-1.88-3.011-1.961
					c-0.53-0.034-1.126,0.18-1.338,0.667c-0.098,0.224-0.103,0.48-0.06,0.721c0.144,0.796,0.752,1.417,1.268,2
					c0.503,0.57,1.005,1.14,1.507,1.71c1.016,1.153,2.034,2.305,3.066,3.443c0.582,0.658,1.163,1.318,1.745,1.976l-2.787-1.852
					c-1.059-0.728-3.276-1.461-3.83-0.301c-0.319,0.666-0.102,1.466,0.51,1.88l15.56,12.306l14.535,46.624
					c3.022,9.072,14.261,12.207,21.542,6.008l21.923-18.665L495.474,202.34z"/>
				<path style="fill:#E06A4B;" d="M455.473,181.088c-0.133,0-0.262-0.054-0.355-0.155c-4.362-4.672-2.115-9.69-2.091-9.739
					c0.054-0.115,0.151-0.204,0.274-0.249c0.122-0.045,0.255-0.038,0.373,0.019c0.116,0.054,0.206,0.152,0.25,0.275
					c0.045,0.122,0.038,0.254-0.017,0.372c-0.084,0.18-2.017,4.438,1.922,8.656c0.089,0.095,0.136,0.219,0.132,0.349
					c-0.005,0.13-0.059,0.251-0.154,0.34c-0.05,0.046-0.104,0.079-0.164,0.101l0,0C455.587,181.078,455.529,181.088,455.473,181.088
					z M455.482,180.592h0.007H455.482z"/>
				<path style="fill:#E06A4B;" d="M483.769,220.49c-0.193,0-0.377-0.113-0.459-0.302l-4.672-10.811
					c-0.109-0.253,0.007-0.548,0.261-0.657c0.253-0.11,0.547,0.007,0.657,0.261l4.672,10.811c0.109,0.253-0.007,0.548-0.261,0.657
					C483.902,220.477,483.835,220.49,483.769,220.49z"/>
			</g>
			<path style="fill:#5C69AB;" d="M569.102,191.243c-2.498-8.512-13.185-11.049-21.943-11.831c-2.301-0.926-4.975-1.273-8.054-0.894
				l-15.939,10.828l-10.196-8.084c-5.008-0.789-9.448,1.157-12.929,4.513l-15.532,14.85c-2.39,2.285-2.755,6.187-0.836,8.947
				l18.325,26.366l-6.587,32.005l62.172-1.059l2.523-49.585l12.061-1.582c1.414-0.186,2.359-1.548,2.032-2.936
				C572.746,206.617,569.196,191.563,569.102,191.243z"/>
			<g>
				<g>
					<polygon style="fill:#E8A185;" points="442.095,416.359 442.095,427.984 420.485,427.405 419.688,415.981 					"/>
					<g>
						<path style="fill:#EB8D2E;" d="M418.416,426.425l-3.345,3.16l-19.549,17.911c-1.294,1.186-0.43,3.342,1.325,3.306
							l44.046-0.908c1.177-0.024,2.104-1.01,2.057-2.186l-0.199-20.632L418.416,426.425z"/>
						<path style="fill:#111111;" d="M395.522,447.497l0.68-0.623c0.332,0.3,0.765,0.501,1.293,0.49l44.046-0.908
							c0.542-0.011,1.026-0.233,1.391-0.577l0.018,1.831c0.047,1.176-0.88,2.161-2.057,2.186l-44.046,0.908
							C395.092,450.839,394.228,448.682,395.522,447.497z"/>
						<path style="fill:#FFFFFF;" d="M401.91,447.634c-0.272,0-0.496-0.219-0.5-0.492c-0.004-0.276,0.216-0.504,0.492-0.508
							l40.991-0.637c0.306,0.024,0.504,0.216,0.508,0.492c0.004,0.276-0.216,0.504-0.492,0.508l-40.991,0.637
							C401.915,447.634,401.913,447.634,401.91,447.634z"/>
						<path style="fill:#FFFFFF;" d="M433.511,440.713c-0.811,0-1.605-0.239-2.295-0.702c-0.917-0.615-1.54-1.552-1.753-2.635
							c-0.214-1.084,0.008-2.186,0.623-3.103c0.615-0.917,1.551-1.54,2.635-1.753c1.084-0.217,2.186,0.007,3.102,0.623
							c0.917,0.615,1.54,1.551,1.753,2.635c0.214,1.084-0.007,2.186-0.623,3.103c-0.615,0.917-1.551,1.54-2.635,1.753
							C434.05,440.688,433.779,440.713,433.511,440.713z M433.52,433.442c-0.2,0-0.403,0.018-0.606,0.059
							c-1.696,0.334-2.804,1.985-2.471,3.682c0.162,0.821,0.634,1.531,1.33,1.998c0.695,0.467,1.528,0.635,2.352,0.473
							c0.822-0.162,1.531-0.634,1.998-1.329c0.467-0.695,0.635-1.531,0.473-2.352C436.302,434.479,434.987,433.442,433.52,433.442z"
							/>
						<path style="fill:#FFFFFF;" d="M418.786,434.086c-0.134,0-0.268-0.054-0.366-0.16l-3.715-4.001
							c-0.188-0.202-0.177-0.518,0.026-0.706c0.201-0.189,0.518-0.177,0.706,0.026l3.715,4.001c0.189,0.202,0.177,0.518-0.026,0.706
							C419.03,434.042,418.908,434.086,418.786,434.086z"/>
						<path style="fill:#FFFFFF;" d="M415.778,436.962c-0.134,0-0.268-0.054-0.366-0.16l-3.716-4.001
							c-0.189-0.202-0.177-0.519,0.026-0.706c0.2-0.188,0.518-0.177,0.706,0.026l3.716,4.001c0.189,0.202,0.177,0.518-0.026,0.706
							C416.022,436.918,415.9,436.962,415.778,436.962z"/>
						<path style="fill:#FFFFFF;" d="M412.949,439.789c-0.134,0-0.268-0.054-0.366-0.16l-3.716-4.001
							c-0.189-0.202-0.177-0.518,0.026-0.706c0.201-0.189,0.517-0.177,0.706,0.026l3.716,4.001c0.188,0.202,0.177,0.519-0.026,0.706
							C413.193,439.745,413.071,439.789,412.949,439.789z"/>
						<path style="fill:#FFFFFF;" d="M418.624,429.073c-0.091,0-0.179-0.021-0.261-0.061c-1.454-0.727-1.021-6.838-0.949-7.245
							c0.231-1.296,1.477-2.163,2.768-1.931c0.627,0.111,1.174,0.461,1.538,0.984c0.365,0.523,0.504,1.156,0.393,1.784l0,0
							c-0.142,0.793-2.255,5.924-3.201,6.397C418.819,429.05,418.721,429.073,418.624,429.073z M419.764,420.8
							c-0.659,0-1.245,0.473-1.365,1.144c-0.203,1.14-0.133,4.795,0.272,5.905c0.728-1.063,2.309-4.577,2.459-5.419
							c0.065-0.364-0.017-0.732-0.228-1.036c-0.212-0.304-0.529-0.507-0.894-0.572C419.925,420.807,419.844,420.8,419.764,420.8z
							 M421.621,422.518h0.01H421.621z"/>
						<path style="fill:#FFFFFF;" d="M418.015,429.087c-1.821,0-5.662-1.331-6.014-1.535c-1.139-0.659-1.528-2.122-0.87-3.261
							c0.319-0.552,0.834-0.946,1.45-1.11c0.612-0.165,1.257-0.08,1.81,0.24h0.001c0.802,0.465,4.238,3.218,4.603,4.638
							c0.091,0.354,0.005,0.602-0.083,0.747C418.792,429.005,418.465,429.087,418.015,429.087z M413.198,424.1
							c-0.12,0-0.241,0.016-0.359,0.047c-0.358,0.096-0.657,0.324-0.843,0.644c-0.382,0.662-0.155,1.513,0.506,1.896
							c0.77,0.446,4.4,1.372,5.508,1.441c-0.386-0.845-3.11-3.256-4.119-3.841l0,0C413.677,424.162,413.438,424.1,413.198,424.1z"/>
					</g>
				</g>
				<g>
					<polygon style="fill:#E8A185;" points="498.526,416.023 498.526,428.631 476.916,428.052 476.12,416.628 					"/>
					<g>
						<path style="fill:#EB8D2E;" d="M475.61,428.017l-3.345,3.16l-19.549,17.912c-1.294,1.186-0.43,3.342,1.325,3.306l44.046-0.908
							c1.177-0.024,2.104-1.01,2.056-2.185l-0.199-20.632L475.61,428.017z"/>
						<path style="fill:#111111;" d="M452.716,449.088l0.68-0.623c0.332,0.299,0.765,0.501,1.292,0.49l44.046-0.908
							c0.542-0.011,1.026-0.233,1.391-0.577l0.018,1.831c0.047,1.176-0.88,2.161-2.056,2.185l-44.046,0.908
							C452.286,452.43,451.421,450.273,452.716,449.088z"/>
						<path style="fill:#FFFFFF;" d="M459.104,449.225c-0.272,0-0.496-0.219-0.5-0.492c-0.004-0.276,0.216-0.504,0.492-0.508
							l40.99-0.637c0.302-0.006,0.504,0.216,0.508,0.492c0.004,0.276-0.216,0.504-0.492,0.508l-40.99,0.637
							C459.109,449.225,459.107,449.225,459.104,449.225z"/>
						<path style="fill:#FFFFFF;" d="M490.705,442.304c-0.811,0-1.605-0.239-2.295-0.702c-0.917-0.615-1.54-1.551-1.753-2.635
							c-0.214-1.084,0.008-2.185,0.623-3.103c0.615-0.917,1.551-1.54,2.635-1.753c1.083-0.217,2.185,0.007,3.103,0.623
							c0.917,0.615,1.54,1.551,1.753,2.635c0.214,1.084-0.008,2.186-0.623,3.103c-0.615,0.917-1.551,1.54-2.635,1.753
							C491.243,442.278,490.974,442.304,490.705,442.304z M490.715,435.033c-0.2,0-0.403,0.019-0.606,0.059
							c-1.696,0.334-2.804,1.985-2.471,3.682c0.334,1.695,1.99,2.804,3.682,2.471c1.696-0.334,2.804-1.985,2.471-3.682
							C493.496,436.07,492.182,435.033,490.715,435.033z"/>
						<path style="fill:#FFFFFF;" d="M475.98,435.677c-0.134,0-0.268-0.054-0.366-0.16l-3.716-4.001
							c-0.188-0.202-0.177-0.518,0.026-0.706c0.2-0.189,0.517-0.177,0.706,0.026l3.716,4.001c0.189,0.202,0.177,0.519-0.026,0.706
							C476.225,435.633,476.102,435.677,475.98,435.677z"/>
						<path style="fill:#FFFFFF;" d="M472.972,438.553c-0.134,0-0.268-0.054-0.366-0.16l-3.715-4
							c-0.189-0.202-0.177-0.519,0.026-0.706c0.201-0.189,0.518-0.178,0.706,0.026l3.715,4c0.189,0.202,0.177,0.519-0.026,0.706
							C473.216,438.509,473.094,438.553,472.972,438.553z"/>
						<path style="fill:#FFFFFF;" d="M470.144,441.38c-0.134,0-0.268-0.054-0.366-0.16l-3.716-4.001
							c-0.189-0.202-0.177-0.519,0.026-0.706c0.2-0.189,0.518-0.177,0.706,0.026l3.716,4.001c0.188,0.202,0.177,0.519-0.026,0.706
							C470.388,441.336,470.266,441.38,470.144,441.38z"/>
						<path style="fill:#FFFFFF;" d="M475.817,430.665c-0.09,0-0.179-0.021-0.26-0.061c-1.455-0.728-1.021-6.839-0.949-7.246
							c0.23-1.295,1.472-2.16,2.769-1.931c1.295,0.232,2.16,1.474,1.93,2.769c-0.141,0.791-2.252,5.922-3.2,6.398
							C476.014,430.642,475.914,430.665,475.817,430.665z M476.957,422.391c-0.658,0-1.245,0.473-1.364,1.144
							c-0.203,1.139-0.133,4.795,0.272,5.906c0.729-1.064,2.308-4.578,2.458-5.42c0.134-0.752-0.369-1.474-1.121-1.608
							C477.119,422.397,477.038,422.391,476.957,422.391z"/>
						<path style="fill:#FFFFFF;" d="M475.21,430.678c-1.821,0-5.663-1.331-6.016-1.535c-0.552-0.319-0.946-0.834-1.11-1.45
							c-0.164-0.615-0.079-1.259,0.24-1.81c0.659-1.14,2.122-1.531,3.261-0.87l0,0c0.802,0.464,4.237,3.216,4.603,4.637
							c0.091,0.353,0.005,0.602-0.083,0.747C475.986,430.597,475.659,430.678,475.21,430.678z M470.392,425.691
							c-0.479,0-0.945,0.248-1.202,0.692c-0.186,0.32-0.234,0.693-0.14,1.051c0.096,0.358,0.324,0.657,0.645,0.843
							c0.773,0.446,4.401,1.373,5.51,1.441c-0.387-0.846-3.11-3.257-4.119-3.841h-0.001
							C470.866,425.752,470.628,425.691,470.392,425.691z"/>
					</g>
				</g>
			</g>
			<g>
				<path style="fill:#E8A185;stroke:#E06A4B;stroke-linecap:round;stroke-miterlimit:10;" d="M480.65,225.818"/>
			</g>
			<path style="fill:none;stroke:#FFFFFF;stroke-linecap:round;stroke-miterlimit:10;" d="M530.683,200.202"/>
			<path style="fill:none;stroke:#FFFFFF;stroke-linecap:round;stroke-miterlimit:10;" d="M534.058,218.544"/>
			<path style="fill:#111111;" d="M499.559,232.465c-0.192,0-0.376-0.111-0.458-0.299l-3.008-6.852
				c-2.268-5.166-2.415-10.917-0.415-16.194l3.599-9.488c0.099-0.258,0.386-0.389,0.645-0.29c0.258,0.098,0.388,0.386,0.29,0.645
				l-3.599,9.488c-1.907,5.031-1.767,10.513,0.396,15.438l3.008,6.853c0.11,0.253-0.004,0.548-0.257,0.659
				C499.694,232.451,499.626,232.465,499.559,232.465z"/>
			<g>
				<g>
					<path style="fill:#E8A185;" d="M579.875,239.768l-9.273-23.882l-26.679,3.59l7.836,22.834l-41.513,3.123v0.002
						c-1.042-0.859-2.147-1.648-3.293-2.326c0,0-10.451-4.923-14.272-5.906c-0.41-0.105-0.831-0.204-1.252-0.166
						c-0.422,0.038-0.85,0.234-1.067,0.597c-0.282,0.473-0.14,1.08,0.068,1.589c0.647,1.582,1.823,2.863,2.991,4.125
						c-1.49,0.049-3.084,0.091-4.828,0.114c-3.673,0.313-9.794,0.086-9.103,4.868c0.381,1.639,1.71,1.921,3.091,1.762
						c-1.894,0.6-3.608,1.695-2.715,4.002c0.506,2.198,2.512,2.13,4.477,1.672c-1.175,0.47-2.054,1.234-1.657,2.688
						c0.406,2.68,2.946,2.838,5.082,2.284c-1.855,1.126,0.424,3.978,3.264,3.991l15.397,0.851c1.271,0.102,2.835-0.457,4.38-1.257
						l53.526,0.469C577.245,264.89,585.686,251.296,579.875,239.768z M486.63,255.139c0.318-0.087,0.612-0.162,0.871-0.209
						C487.248,255.001,486.95,255.069,486.63,255.139z"/>
					<path style="opacity:0.36;fill:#E06A4B;" d="M493.422,243.35l8.37,0.439c0,0-8.864-2.88-10.382-2.822L493.422,243.35z"/>
				</g>
				<path style="fill:#E06A4B;" d="M481.822,250.686c-0.214,0-0.411-0.138-0.478-0.352c-0.082-0.264,0.065-0.544,0.329-0.626
					c0.802-0.248,5-0.359,5.833-0.379c0.275,0.005,0.506,0.212,0.512,0.488c0.007,0.276-0.212,0.505-0.488,0.512
					c-1.876,0.044-5.044,0.175-5.56,0.335C481.921,250.678,481.871,250.686,481.822,250.686z"/>
				<path style="fill:#E06A4B;" d="M483.929,256.348c-0.267,0-0.488-0.211-0.5-0.479c-0.011-0.275,0.203-0.509,0.479-0.52
					l4.542-0.188c0.261-0.008,0.509,0.204,0.52,0.479c0.011,0.275-0.203,0.509-0.479,0.521l-4.542,0.188
					C483.942,256.348,483.935,256.348,483.929,256.348z"/>
				<path style="fill:#E06A4B;" d="M487.769,261.239c-0.262,0-0.482-0.203-0.499-0.469c-0.017-0.275,0.191-0.513,0.468-0.53
					l2.444-0.155c0.279-0.023,0.514,0.191,0.53,0.468c0.018,0.275-0.191,0.513-0.468,0.53l-2.444,0.155
					C487.789,261.239,487.778,261.239,487.769,261.239z"/>
				<path style="fill:#E06A4B;" d="M543.922,243.269c-0.252,0-0.469-0.191-0.496-0.447c-0.029-0.274,0.169-0.521,0.444-0.55
					l11.298-1.208c0.256-0.028,0.52,0.169,0.55,0.444c0.029,0.274-0.169,0.521-0.444,0.55l-11.298,1.208
					C543.958,243.268,543.94,243.269,543.922,243.269z"/>
			</g>
			<g>
				<path style="fill:#111111;" d="M467.074,271.963c-9.806-0.082-18.314,4.534-23.723,11.549
					c-14.862,4.003-25.807,17.363-26.233,33.322l-3.072,95.29c-0.069,2.146,1.629,3.934,3.775,3.976l24.728,0.484
					c1.421,0.028,2.661-0.957,2.957-2.347l8.472-39.833l9.743,40.157c0.37,1.525,1.746,2.591,3.315,2.569l34.697-0.504
					c1.416-0.02,2.426-1.38,2.037-2.742l-27.474-96.057l43.64-0.74c25.057-0.425,45.911-19.368,48.736-44.269L467.074,271.963z"/>
				<path style="fill:#FFFFFF;" d="M454.32,377.335c-0.227,0-0.432-0.154-0.486-0.384l-16.278-68.111
					c-2.25-9.105-0.205-18.553,5.61-25.916c5.815-7.362,14.532-11.548,23.912-11.461l101.599,0.854
					c0.276,0.002,0.498,0.228,0.496,0.504c-0.002,0.275-0.226,0.496-0.5,0.496c-0.001,0-0.003,0-0.004,0l-101.599-0.854
					c-9.083-0.058-17.498,3.963-23.119,11.081c-5.623,7.119-7.6,16.253-5.424,25.06l16.279,68.115
					c0.065,0.268-0.102,0.538-0.37,0.602C454.397,377.331,454.358,377.335,454.32,377.335z"/>
			</g>
			<g>
				<path style="fill:#111111;" d="M557.202,172.683c-2.856-2.112-6.434-3.682-7.938-6.9c-1.621-3.467,0.634-10.32,0.634-10.32
					c1.656-3.874,0.878-8.512-1.426-12.047l-0.207-4.89c0.029-0.514,0.021-1.02-0.009-1.52c3.47-1.471,6.928-4.127,8.558-6.366
					c2.985-4.099,2.082-9.843-2.017-12.828c-4.099-2.985-9.843-2.082-12.828,2.017c-1.008,1.385-1.95,3.489-2.607,5.778
					c-1.292-0.41-2.671-0.625-4.107-0.598l-6.524,0.121l-7.632-2.845c-6.587-2.455-13.825,1.472-15.356,8.333l-1.663,7.452
					l0.817,0.11c-0.6,1.743-1.021,3.607-1.213,5.565l-0.615,6.252l3.799,0.374c0.417,1.386,1.948,6.977,0.535,9.999
					c-1.505,3.218-5.082,4.788-7.939,6.9c-2.856,2.112-5.249,6.113-3.258,9.055c3.618-2.241,8.919-1.099,11.294,2.432
					c1.638-2.298,3.276-4.596,4.914-6.895c-1.02,2.536-1.358,5.344-0.968,8.05c3.67,0.83,7.525,0.829,11.195-0.003
					c0.451-0.103,0.919-0.231,1.302-0.479c1.203,0.647,2.423,1.264,3.641,1.876c0.683-2.17,1.679-4.239,2.933-6.137
					c0.405-0.206,0.81-0.414,1.213-0.624c0.021,2.593,0.042,5.186,0.063,7.779c0.006,0.777,0.04,1.629,0.557,2.208
					c0.418,0.468,1.061,0.651,1.673,0.79c3.669,0.832,7.525,0.833,11.195,0.003c0.39-2.706,0.053-5.513-0.968-8.05
					c1.638,2.298,3.276,4.596,4.914,6.895c2.375-3.531,7.676-4.673,11.294-2.432C562.451,178.796,560.058,174.796,557.202,172.683z"
					/>
				<g>
					<g>
						<g>
							<g>
								<path style="fill:#E8A185;" d="M539.256,143.993l-2.128-0.074l-2.523,4.62c-0.914,1.674-3.442,1.159-3.629-0.738
									l-0.951-9.626c-0.174-1.756-2.39-2.416-3.496-1.042l-2.142,2.661l-7.499-0.272l-1.647-6.251l-1.281,6.125l-6.275-0.842
									l-3.071,17.348c-1.208,6.829,2.587,13.331,8.683,15.54l0.912,7.916c0.712,6.184,6.505,10.643,12.873,9.91l0.264-0.03
									c6.368-0.733,12.123-4.967,11.411-11.151l-3.178-20.654l3.208,0.111c3.684,0.128,6.803-2.782,6.931-6.466l0.005-0.153
									C545.85,147.24,542.94,144.121,539.256,143.993z"/>
							</g>
							<g>
								<g>
									<path style="fill:#111111;" d="M506.636,148.439c-0.128,0.706,0.341,1.382,1.046,1.509c0.706,0.128,1.381-0.34,1.509-1.046
										c0.128-0.706-0.341-1.381-1.046-1.509C507.439,147.265,506.764,147.733,506.636,148.439z"/>
									<path style="fill:#111111;" d="M517.154,148.889c0.059,0.783,0.741,1.369,1.523,1.31c0.783-0.059,1.369-0.741,1.31-1.523
										c-0.059-0.783-0.741-1.369-1.523-1.31C517.682,147.424,517.095,148.107,517.154,148.889z"/>
									<g>
										<g>
											<path style="fill:#E06A4B;" d="M514.196,165.664c0.058,0.016,0.121,0.012,0.181-0.015c0.06-0.027,1.49-0.655,2.551,0.469
												c0.102,0.108,0.273,0.113,0.382,0.011c0.109-0.103,0.114-0.273,0.011-0.382c-1.332-1.408-3.151-0.597-3.169-0.589
												c-0.135,0.062-0.194,0.222-0.133,0.357C514.054,165.592,514.121,165.644,514.196,165.664z"/>
										</g>
									</g>
									<g>
										<g>
											<g>
												<g>
													<g>
														<g>
															<path style="fill:#111111;" d="M523.659,143.615c-0.509,0.13-1.116-0.026-1.711-0.144
																c-0.597-0.131-1.2-0.248-1.727-0.331c-0.528-0.083-1.138-0.158-1.747-0.218c-0.603-0.072-1.232-0.11-1.668-0.39
																c-0.423-0.263-0.521-0.841,0.123-1.432c0.608-0.578,2.039-1.085,3.788-0.813c1.746,0.28,2.93,1.199,3.31,1.933
																C524.436,142.979,524.149,143.496,523.659,143.615z"/>
														</g>
													</g>
												</g>
												<g>
													<g>
														<g>
															<path style="fill:#111111;" d="M505.252,143.133c0.355,0.104,0.771-0.016,1.18-0.107
																c0.41-0.101,0.824-0.19,1.186-0.253c0.363-0.064,0.783-0.12,1.203-0.165c0.415-0.054,0.849-0.082,1.144-0.3
																c0.286-0.205,0.339-0.658-0.12-1.124c-0.435-0.456-1.437-0.858-2.64-0.651c-1.2,0.214-1.997,0.931-2.242,1.506
																C504.7,142.631,504.911,143.038,505.252,143.133z"/>
														</g>
													</g>
												</g>
											</g>
										</g>
									</g>
									<g>
										<path style="fill:#E8A185;" d="M520.037,150.272c0,0-1.269-0.912-2.5,0.175"/>
										<path style="fill:#E06A4B;" d="M517.538,150.947c-0.139,0-0.276-0.057-0.375-0.169c-0.183-0.207-0.163-0.523,0.044-0.706
											c1.212-1.07,2.572-0.602,3.122-0.206c0.224,0.161,0.275,0.474,0.114,0.698c-0.161,0.223-0.473,0.275-0.696,0.116
											c-0.102-0.071-0.988-0.643-1.878,0.142C517.774,150.906,517.656,150.947,517.538,150.947z"/>
									</g>
									<g>
										<path style="fill:#E8A185;" d="M508.642,149.748c0,0-0.785-0.526-1.473,0.213"/>
										<path style="fill:#E06A4B;" d="M507.169,150.46c-0.122,0-0.244-0.044-0.341-0.134c-0.202-0.188-0.213-0.504-0.025-0.707
											c0.775-0.833,1.723-0.552,2.117-0.287c0.229,0.154,0.291,0.464,0.137,0.694c-0.154,0.228-0.463,0.288-0.688,0.14
											c-0.108-0.066-0.476-0.249-0.833,0.135C507.436,150.407,507.303,150.46,507.169,150.46z"/>
									</g>
								</g>
								<path style="fill:#FFFFFF;" d="M519.457,154.995c-0.442-0.294-1.029-0.221-1.421,0.137
									c-0.713,0.653-2.264,1.811-4.487,2.037c-0.546,0.056-0.827,0.691-0.593,1.186c0.515,1.091,1.895,2.772,4.766,1.426
									C521.221,158.141,520.609,155.761,519.457,154.995z"/>
								<g>
									<path style="fill:#E8A185;" d="M512.785,145.806l-0.507,5.296l-1.336,0.084c-0.582-0.079-1.119,0.328-1.198,0.911
										l-0.132,0.969c-0.108,0.796,0.443,1.53,1.238,1.648l2.41,0.357"/>
									<path style="fill:#E06A4B;" d="M513.262,155.57c-0.024,0-0.05-0.002-0.074-0.005l-2.41-0.356
										c-1.06-0.157-1.804-1.148-1.659-2.21l0.132-0.969c0.056-0.414,0.27-0.781,0.603-1.034c0.332-0.253,0.744-0.363,1.157-0.305
										l0.811-0.058l0.466-4.875c0.027-0.275,0.277-0.477,0.546-0.45c0.274,0.026,0.477,0.27,0.45,0.545l-0.548,5.72l-1.761,0.111
										c-0.249-0.023-0.396,0.015-0.517,0.106c-0.12,0.091-0.197,0.224-0.218,0.373l-0.132,0.969
										c-0.07,0.521,0.295,1.009,0.815,1.086l2.41,0.357c0.273,0.04,0.462,0.294,0.421,0.568
										C513.719,155.392,513.505,155.57,513.262,155.57z"/>
								</g>
							</g>
							<path style="fill:#E06A4B;" d="M539.718,153.113c-0.094,0-0.188-0.026-0.273-0.081l-2.188-1.426
								c-0.122-0.08-0.203-0.209-0.223-0.354c-0.019-0.145,0.026-0.291,0.124-0.399l2.338-2.602
								c0.185-0.206,0.501-0.221,0.706-0.038c0.206,0.185,0.223,0.501,0.038,0.706l-1.948,2.167l1.699,1.107
								c0.231,0.151,0.296,0.461,0.145,0.692C540.041,153.033,539.881,153.113,539.718,153.113z"/>
							<path style="fill:#E06A4B;" d="M513.314,171.604c0,0,12.227,0.936,14.651-3.715c2.423-4.651,0,0,0,0
								s0.268,7.775-13.854,10.629L513.314,171.604z"/>
							<path style="fill:#FFFFFF;" d="M539.964,160.382c-1.58,0-2.911-1.233-3.009-2.83c-0.102-1.659,1.166-3.092,2.826-3.194
								c1.646-0.096,3.093,1.164,3.194,2.824c0.05,0.804-0.217,1.579-0.751,2.182c-0.533,0.603-1.27,0.962-2.074,1.012
								C540.089,160.38,540.026,160.382,539.964,160.382z M539.967,155.353c-0.041,0-0.083,0.002-0.125,0.004
								c-1.109,0.068-1.957,1.026-1.889,2.134c0.068,1.108,1.019,1.95,2.137,1.887c0.537-0.033,1.029-0.273,1.387-0.677
								c0.356-0.403,0.534-0.92,0.501-1.458l0,0C541.912,156.177,541.022,155.353,539.967,155.353z"/>
							
								<path style="fill:none;stroke:#E06A4B;stroke-width:5;stroke-linecap:round;stroke-linejoin:round;stroke-miterlimit:10;" d="
								M539.97,150.434"/>
						</g>
					</g>
				</g>
			</g>
			<g>
				<path style="fill:#5C69AB;" d="M542.679,183.714l-3.811-7.814c-0.261-0.535-1.072-0.677-1.559-0.274l-13.775,11.262
					l-9.325-9.751c-0.787-0.833-2.036-0.245-2.13,1.005l-2.506,6.44c-0.296,0.76-0.143,1.614,0.4,2.235l6.494,7.428
					c0.458,0.837,1.469,0.896,1.992,0.115l5.019-6.197l7.875,7.741c0.866,0.738,2.302,0.638,3.016-0.21l8.005-9.508
					C542.956,185.497,543.076,184.527,542.679,183.714z"/>
				<path style="fill:#111111;" d="M532.755,196.901c-0.643,0-1.261-0.218-1.727-0.614l-7.509-7.379l-4.672,5.769
					c-0.315,0.471-0.835,0.754-1.42,0.734c-0.557-0.025-1.065-0.35-1.372-0.873l-6.459-7.39c-0.665-0.761-0.853-1.813-0.489-2.746
					l2.48-6.375c0.087-0.79,0.566-1.445,1.239-1.684c0.62-0.221,1.273-0.05,1.746,0.452l9.003,9.415l13.416-10.97
					c0.357-0.296,0.854-0.413,1.331-0.308c0.446,0.097,0.81,0.37,0.994,0.75l3.81,7.814c0.483,0.989,0.337,2.173-0.372,3.015
					l-8.004,9.508c-0.419,0.497-1.061,0.815-1.762,0.874C532.911,196.898,532.833,196.901,532.755,196.901z M523.542,187.528
					l8.161,8.021c0.294,0.248,0.746,0.382,1.204,0.345c0.438-0.036,0.831-0.226,1.079-0.521l8.004-9.508
					c0.455-0.54,0.549-1.298,0.239-1.933l-3.811-7.814c-0.05-0.102-0.162-0.179-0.308-0.211c-0.171-0.036-0.361,0.001-0.484,0.104
					L523.542,187.528z M513.362,177.249c-0.066,0-0.134,0.012-0.201,0.036c-0.322,0.114-0.551,0.465-0.583,0.895l-0.033,0.143
					l-2.506,6.441c-0.228,0.585-0.108,1.246,0.31,1.725l6.556,7.517c0.136,0.248,0.343,0.395,0.568,0.405
					c0.217,0.007,0.424-0.109,0.571-0.329l5.354-6.613l-9.549-9.986C513.703,177.329,513.535,177.249,513.362,177.249z"/>
			</g>
		</g>
		<g>
			<g>
				<path style="fill:#111111;" d="M314.955,452.895c-0.022,0-0.044-0.001-0.067-0.005c-0.273-0.036-0.465-0.288-0.429-0.561
					l22.882-169.81l25.818,168.241c0.042,0.273-0.146,0.528-0.418,0.57c-0.277,0.042-0.528-0.145-0.57-0.418L337.405,289.53
					L315.45,452.461C315.416,452.712,315.201,452.895,314.955,452.895z"/>
				<path style="fill:#111111;" d="M560.107,452.895c-0.022,0-0.045-0.001-0.067-0.005c-0.274-0.036-0.466-0.288-0.429-0.561
					l22.881-169.81L608.31,450.76c0.042,0.273-0.146,0.528-0.418,0.57c-0.276,0.042-0.528-0.145-0.57-0.418L582.557,289.53
					l-21.955,162.931C560.568,452.712,560.354,452.895,560.107,452.895z"/>
				<path style="fill:#EB8D2E;" d="M609.088,285.683H310.163c-1.22,0-2.208-0.989-2.208-2.208v-16.658
					c0-1.219,0.989-2.208,2.208-2.208h298.925c1.22,0,2.208,0.989,2.208,2.208v16.658
					C611.296,284.695,610.307,285.683,609.088,285.683z"/>
				<path style="opacity:0.46;fill:#E16C2E;" d="M607.75,276.869h-296.25c-1.958,0-3.546,1.368-3.546,3.057v2.701
					c0,1.688,1.587,3.057,3.546,3.057h296.25c1.958,0,3.546-1.368,3.546-3.057v-2.701
					C611.296,278.237,609.708,276.869,607.75,276.869z"/>
			</g>
			<g>
				<path style="fill:#111111;" d="M354.505,258.266h-3.145c-0.276,0-0.5-0.224-0.5-0.5c0-0.276,0.224-0.5,0.5-0.5h3.145
					c2.423,0,4.393-1.971,4.393-4.393v-2.72c0-0.742-0.604-1.346-1.347-1.346h-6.192c-0.276,0-0.5-0.224-0.5-0.5
					c0-0.276,0.224-0.5,0.5-0.5h6.192c1.294,0,2.347,1.053,2.347,2.346v2.72C359.898,255.846,357.478,258.266,354.505,258.266z"/>
				<path style="fill:#5C69AB;" d="M353.806,264.609h-19.272v-21.597c0-0.856,0.694-1.55,1.55-1.55h16.371
					c0.746,0,1.351,0.605,1.351,1.351V264.609z"/>
			</g>
			<g>
				<g>
					<g>
						<path style="fill:#2D2D30;" d="M389.52,213.383h51.114c1.828,0,3.431,1.221,3.917,2.983l11.775,42.684h1.454h32.792
							c0.623,0,0.995,0.694,0.649,1.213l-2.704,4.056h-30.737h-58.401l-13.777-45.66
							C384.809,216.031,386.775,213.383,389.52,213.383z"/>
						<path style="fill:#111111;" d="M394.987,264.424h58.401l-13.228-47.953c-0.486-1.762-2.089-2.983-3.917-2.983h-51.114
							c-2.745,0-4.711,2.648-3.919,5.276L394.987,264.424z"/>
					</g>
				</g>
				<path style="fill:#F6EEE3;" d="M413.824,247.325c-3.616,0-6.558-2.942-6.558-6.558c0-3.616,2.941-6.559,6.558-6.559
					c3.616,0,6.559,2.942,6.559,6.559C420.383,244.383,417.44,247.325,413.824,247.325z M413.824,235.208
					c-3.064,0-5.558,2.494-5.558,5.559c0,3.065,2.493,5.558,5.558,5.558c3.065,0,5.559-2.493,5.559-5.558
					C419.383,237.702,416.89,235.208,413.824,235.208z"/>
			</g>
		</g>
		<path style="fill:#111111;" d="M546.834,229.17c-0.211,0-0.407-0.134-0.476-0.346l-2.864-8.814l-2.705,0.247
			c-1.691,0.156-3.179-1.04-3.396-2.721l-1.693-13.036c-0.035-0.274,0.158-0.525,0.432-0.56c0.267-0.038,0.524,0.157,0.561,0.431
			l1.693,13.036c0.147,1.145,1.169,1.96,2.313,1.853l3.501-0.319l3.11,9.573c0.085,0.262-0.059,0.545-0.321,0.63
			C546.938,229.162,546.885,229.17,546.834,229.17z"/>
	</g>
	<g>
		<g>
			<g>
				<polygon style="fill:#E8A185;" points="225.557,413.563 225.557,427.023 248.629,426.405 249.48,414.209 				"/>
				<g>
					<path style="fill:#E16C2E;" d="M250.838,425.36l3.572,3.373l20.871,19.123c1.382,1.266,0.459,3.569-1.415,3.53l-47.026-0.969
						c-1.256-0.026-2.246-1.078-2.196-2.334l0.213-22.027L250.838,425.36z"/>
					<path style="fill:#111111;" d="M275.28,447.856l-0.726-0.665c-0.355,0.32-0.817,0.535-1.38,0.523l-47.026-0.969
						c-0.579-0.012-1.095-0.249-1.485-0.616l-0.019,1.954c-0.051,1.256,0.94,2.307,2.196,2.334l47.026,0.969
						C275.74,451.424,276.662,449.122,275.28,447.856z"/>
					<path style="fill:#FFFFFF;" d="M268.46,447.969c-0.003,0-0.005,0-0.008,0l-43.764-0.68c-0.276-0.004-0.497-0.232-0.492-0.508
						c0.004-0.276,0.187-0.497,0.508-0.492l43.764,0.68c0.276,0.004,0.497,0.231,0.492,0.508
						C268.956,447.75,268.732,447.969,268.46,447.969z"/>
					<path style="fill:#FFFFFF;" d="M234.722,440.579c-0.284,0-0.571-0.027-0.856-0.084c-1.148-0.226-2.139-0.886-2.791-1.856
						c-0.652-0.972-0.887-2.139-0.661-3.287c0.226-1.148,0.886-2.14,1.857-2.792c0.971-0.652,2.139-0.889,3.287-0.66
						c1.148,0.226,2.14,0.886,2.792,1.857c0.652,0.972,0.887,2.139,0.661,3.287l0,0c-0.226,1.148-0.886,2.14-1.857,2.791
						C236.423,440.325,235.582,440.579,234.722,440.579z M234.705,432.815c-0.664,0-1.313,0.196-1.876,0.574
						c-0.749,0.504-1.259,1.269-1.433,2.155c-0.36,1.828,0.835,3.609,2.664,3.97c0.886,0.173,1.787-0.006,2.537-0.51
						c0.749-0.503,1.259-1.268,1.433-2.154l0,0c0.175-0.886-0.006-1.787-0.51-2.537c-0.503-0.75-1.268-1.259-2.154-1.434
						C235.145,432.837,234.924,432.815,234.705,432.815z"/>
					<path style="fill:#FFFFFF;" d="M250.442,433.504c-0.122,0-0.244-0.044-0.34-0.134c-0.202-0.188-0.214-0.504-0.026-0.706
						l3.967-4.271c0.187-0.204,0.504-0.216,0.706-0.026c0.202,0.188,0.214,0.504,0.026,0.706l-3.967,4.271
						C250.71,433.45,250.577,433.504,250.442,433.504z"/>
					<path style="fill:#FFFFFF;" d="M253.654,436.575c-0.122,0-0.244-0.044-0.34-0.134c-0.202-0.188-0.214-0.504-0.026-0.706
						l3.967-4.272c0.188-0.204,0.504-0.215,0.707-0.026c0.202,0.188,0.214,0.504,0.026,0.706l-3.967,4.271
						C253.922,436.522,253.789,436.575,253.654,436.575z"/>
					<path style="fill:#FFFFFF;" d="M256.674,439.593c-0.122,0-0.244-0.044-0.34-0.134c-0.202-0.188-0.214-0.504-0.026-0.706
						l3.967-4.271c0.188-0.203,0.504-0.216,0.706-0.026c0.202,0.188,0.214,0.504,0.026,0.706l-3.967,4.271
						C256.942,439.539,256.809,439.593,256.674,439.593z"/>
					<path style="fill:#FFFFFF;" d="M250.617,428.153c-0.099,0-0.199-0.024-0.294-0.072c-1.005-0.504-3.248-5.963-3.398-6.806l0,0
						c-0.243-1.365,0.669-2.674,2.033-2.917c0.66-0.116,1.329,0.028,1.879,0.413c0.551,0.384,0.919,0.96,1.037,1.621
						c0.074,0.415,0.51,6.945-0.996,7.699C250.797,428.133,250.707,428.153,250.617,428.153z M247.909,421.1
						c0.165,0.926,1.909,4.795,2.672,5.859c0.449-1.095,0.532-5.133,0.308-6.391c-0.071-0.398-0.293-0.745-0.625-0.977
						c-0.332-0.232-0.733-0.318-1.131-0.249C248.311,419.489,247.762,420.277,247.909,421.1L247.909,421.1z"/>
					<path style="fill:#FFFFFF;" d="M251.247,428.164c-0.459,0-0.79-0.081-0.911-0.28c-0.09-0.151-0.178-0.406-0.083-0.773
						c0.389-1.51,4.046-4.436,4.899-4.929c1.198-0.694,2.74-0.283,3.435,0.915c0.336,0.582,0.426,1.26,0.253,1.908
						c-0.173,0.649-0.588,1.191-1.169,1.527C257.294,426.75,253.16,428.164,251.247,428.164z M251.211,427.418h0.01H251.211z
						 M256.409,422.844c-0.257,0-0.518,0.065-0.756,0.203h0c-1.09,0.631-3.986,3.194-4.393,4.164c1.176-0.065,5.073-1.06,5.91-1.544
						c0.35-0.202,0.6-0.529,0.705-0.92c0.104-0.391,0.05-0.799-0.152-1.149C257.441,423.114,256.932,422.844,256.409,422.844z
						 M255.402,422.614h0.01H255.402z"/>
				</g>
			</g>
			<g>
				<polygon style="fill:#E8A185;" points="191.619,413.563 191.619,427.023 214.691,426.405 215.541,414.209 				"/>
				<g>
					<g>
						<path style="fill:#EB8D2E;" d="M216.085,426.368l3.572,3.373l20.871,19.123c1.382,1.266,0.459,3.568-1.415,3.53l-47.026-0.969
							c-1.256-0.026-2.246-1.078-2.196-2.333l0.213-22.027L216.085,426.368z"/>
						<path style="fill:#111111;" d="M240.528,448.864l-0.726-0.665c-0.355,0.32-0.817,0.534-1.38,0.523l-47.026-0.969
							c-0.579-0.012-1.095-0.249-1.485-0.616l-0.019,1.955c-0.05,1.255,0.94,2.307,2.196,2.333l47.026,0.969
							C240.987,452.432,241.91,450.13,240.528,448.864z"/>
						<path style="fill:#FFFFFF;" d="M233.707,448.977c-0.002,0-0.005,0-0.008,0l-43.763-0.68c-0.276-0.004-0.497-0.232-0.492-0.508
							c0.004-0.276,0.191-0.516,0.508-0.492l43.763,0.68c0.276,0.004,0.497,0.231,0.492,0.508
							C234.203,448.758,233.98,448.977,233.707,448.977z"/>
						<path style="fill:#FFFFFF;" d="M199.969,441.588c-0.284,0-0.57-0.027-0.855-0.084c-1.148-0.226-2.14-0.886-2.792-1.857
							c-0.652-0.972-0.887-2.139-0.661-3.287c0.467-2.37,2.778-3.922,5.145-3.452c2.37,0.468,3.918,2.775,3.452,5.145l0,0
							c-0.226,1.148-0.886,2.14-1.857,2.792C201.671,441.334,200.83,441.588,199.969,441.588z M199.959,433.824
							c-1.582,0-2.999,1.118-3.316,2.729c-0.175,0.886,0.006,1.787,0.51,2.537c0.503,0.75,1.268,1.259,2.154,1.434
							c0.886,0.175,1.788-0.007,2.537-0.51c0.75-0.504,1.259-1.269,1.433-2.155l0,0c0.36-1.828-0.835-3.609-2.664-3.971
							C200.394,433.845,200.175,433.824,199.959,433.824z"/>
						<path style="fill:#FFFFFF;" d="M215.69,434.513c-0.122,0-0.244-0.044-0.34-0.134c-0.202-0.188-0.214-0.504-0.026-0.706
							l3.967-4.272c0.188-0.203,0.504-0.216,0.707-0.026c0.202,0.188,0.214,0.504,0.026,0.706l-3.967,4.271
							C215.958,434.459,215.825,434.513,215.69,434.513z"/>
						<path style="fill:#FFFFFF;" d="M218.902,437.583c-0.122,0-0.244-0.044-0.34-0.134c-0.202-0.188-0.214-0.504-0.026-0.706
							l3.967-4.271c0.187-0.203,0.504-0.216,0.707-0.026c0.202,0.188,0.214,0.504,0.026,0.706l-3.967,4.272
							C219.17,437.529,219.036,437.583,218.902,437.583z"/>
						<path style="fill:#FFFFFF;" d="M221.922,440.602c-0.122,0-0.244-0.044-0.34-0.134c-0.202-0.188-0.214-0.504-0.026-0.706
							l3.967-4.271c0.186-0.203,0.504-0.216,0.707-0.026c0.202,0.188,0.214,0.504,0.026,0.706l-3.967,4.272
							C222.19,440.548,222.056,440.602,221.922,440.602z"/>
						<path style="fill:#FFFFFF;" d="M215.864,429.161c-0.098,0-0.199-0.024-0.293-0.071c-1.005-0.504-3.249-5.964-3.399-6.807
							c-0.118-0.661,0.029-1.328,0.413-1.88c0.384-0.551,0.96-0.919,1.621-1.037c1.362-0.243,2.673,0.67,2.916,2.034
							c0.074,0.415,0.512,6.946-0.996,7.699C216.044,429.141,215.955,429.161,215.864,429.161z M216.04,428.208h0.01H216.04z
							 M214.646,420.327c-0.088,0-0.176,0.008-0.266,0.023c-0.398,0.071-0.745,0.293-0.976,0.625
							c-0.231,0.332-0.319,0.733-0.249,1.132c0.165,0.926,1.909,4.795,2.672,5.859c0.45-1.096,0.533-5.134,0.309-6.391
							C216.007,420.844,215.366,420.327,214.646,420.327z"/>
						<path style="fill:#FFFFFF;" d="M216.496,429.172c-0.46,0-0.791-0.081-0.911-0.281c-0.09-0.149-0.178-0.405-0.084-0.771
							c0.388-1.509,4.044-4.436,4.899-4.93l0,0c0.58-0.337,1.258-0.429,1.907-0.254c0.649,0.174,1.191,0.589,1.528,1.171
							c0.336,0.58,0.426,1.258,0.253,1.906c-0.173,0.649-0.589,1.191-1.17,1.527C222.542,427.758,218.409,429.172,216.496,429.172z
							 M216.459,428.426h0.01H216.459z M221.656,423.851c-0.263,0-0.522,0.068-0.756,0.204l0,0c-1.09,0.631-3.985,3.194-4.393,4.164
							c1.176-0.066,5.073-1.06,5.91-1.544c0.35-0.202,0.6-0.529,0.705-0.92c0.104-0.391,0.05-0.798-0.152-1.148
							c-0.203-0.351-0.529-0.601-0.92-0.705C221.919,423.867,221.787,423.851,221.656,423.851z M220.65,423.622h0.01H220.65z"/>
					</g>
				</g>
			</g>
			<g>
				<path style="fill:#111111;" d="M278.601,323.011l-23.059-86.588h-31.406l-0.517-5.982h-35.222l-4.776,14.048
					c-2.884,8.483-3.036,17.658-0.433,26.232l0.603,1.987l4.606,51.75l-1.174,92.315c-0.021,1.674,1.342,3.036,3.016,3.013
					l26.179-0.362c1.413-0.02,2.585-1.1,2.718-2.507l8.621-90.89c0.097-1.045,0.14-2.094,0.13-3.144l-0.399-40.824l12.315,48.276
					l-16.151,84.791c-0.331,1.738,1.002,3.349,2.771,3.349h24.3c1.745,0,3.29-1.128,3.821-2.791l23.307-73.01
					C280.066,336.342,280.327,329.492,278.601,323.011z"/>
				<path style="fill:#FFFFFF;" d="M227.67,283.542c-0.018,0-0.038-0.001-0.057-0.003c-0.274-0.031-0.472-0.279-0.441-0.553
					l2.418-21.401c0.132-1.172,0.167-2.361,0.104-3.538l-0.776-14.438c-0.015-0.276,0.197-0.511,0.473-0.526
					c0.267-0.017,0.511,0.197,0.526,0.473l0.776,14.438c0.066,1.23,0.029,2.477-0.109,3.702l-2.418,21.401
					C228.137,283.353,227.921,283.542,227.67,283.542z"/>
			</g>
		</g>
		<g>
			<g>
				<path style="fill:#E8A185;" d="M267.829,159.309l14.616,16.628l17.589-29.018l13.058,8.514l-11.523,44.405
					c-3.902,15.039-23.228,19.283-33.073,7.264l-14.912-18.205L267.829,159.309z"/>
				<path style="fill:#E06A4B;" d="M277.958,184.124c-0.086,0-0.173-0.022-0.252-0.068c-0.238-0.14-0.318-0.446-0.179-0.684
					l4.898-8.367c0.14-0.239,0.447-0.319,0.684-0.179c0.238,0.14,0.318,0.446,0.179,0.684l-4.898,8.367
					C278.297,184.036,278.13,184.124,277.958,184.124z"/>
				<g>
					<g>
						<g>
							<g>
								<rect x="287.508" y="128.942" style="fill:#FFFFFF;" width="51.169" height="67.442"/>
								<path style="fill:#5C69AB;" d="M315.101,141.816h-21.34c-0.207,0-0.375-0.168-0.375-0.375s0.168-0.375,0.375-0.375h21.34
									c0.207,0,0.375,0.168,0.375,0.375S315.308,141.816,315.101,141.816z"/>
								<path style="fill:#5C69AB;" d="M318.19,151.251h-24.429c-0.207,0-0.375-0.168-0.375-0.375s0.168-0.375,0.375-0.375h24.429
									c0.207,0,0.375,0.168,0.375,0.375S318.397,151.251,318.19,151.251z"/>
								<path style="fill:#5C69AB;" d="M318.19,181.651h-24.429c-0.207,0-0.375-0.168-0.375-0.375c0-0.207,0.168-0.375,0.375-0.375
									h24.429c0.207,0,0.375,0.168,0.375,0.375C318.565,181.483,318.397,181.651,318.19,181.651z"/>
								<path style="fill:#5C69AB;" d="M331.992,157.99h-38.23c-0.207,0-0.375-0.168-0.375-0.375c0-0.207,0.168-0.375,0.375-0.375
									h38.23c0.207,0,0.375,0.168,0.375,0.375C332.367,157.822,332.199,157.99,331.992,157.99z"/>
								<path style="fill:#5C69AB;" d="M331.992,173.658h-38.23c-0.207,0-0.375-0.168-0.375-0.375s0.168-0.375,0.375-0.375h38.23
									c0.207,0,0.375,0.168,0.375,0.375S332.199,173.658,331.992,173.658z"/>
								<path style="fill:#5C69AB;" d="M331.992,151.251h-11.498c-0.207,0-0.375-0.168-0.375-0.375s0.168-0.375,0.375-0.375h11.498
									c0.207,0,0.375,0.168,0.375,0.375S332.199,151.251,331.992,151.251z"/>
								<path style="fill:#5C69AB;" d="M305.259,165.908h-11.498c-0.207,0-0.375-0.168-0.375-0.375s0.168-0.375,0.375-0.375h11.498
									c0.207,0,0.375,0.168,0.375,0.375S305.466,165.908,305.259,165.908z"/>
							</g>
						</g>
					</g>
					<g>
						<g>
							<g>
								<g>
									<path style="fill:#E8A185;" d="M307.064,121.044L307.064,121.044c1.534,0.123,2.688,1.478,2.565,3.012l-0.701,8.757
										c-0.123,1.534-1.478,2.688-3.012,2.565v0c-1.534-0.123-2.688-1.478-2.565-3.012l0.701-8.757
										C304.175,122.076,305.53,120.921,307.064,121.044z"/>
								</g>
								<g>
									<path style="fill:#E8A185;" d="M301.448,120.5L301.448,120.5c1.534,0.123,2.688,1.478,2.565,3.012l-0.757,9.453
										c-0.123,1.534-1.478,2.688-3.012,2.565l0,0c-1.534-0.123-2.688-1.478-2.565-3.012l0.757-9.453
										C298.559,121.532,299.914,120.377,301.448,120.5z"/>
								</g>
								<g>
									<path style="fill:#E8A185;" d="M312.414,123.373L312.414,123.373c1.534,0.123,2.688,1.478,2.565,3.012l-0.455,5.687
										c-0.123,1.534-1.478,2.688-3.012,2.565v0c-1.534-0.123-2.688-1.478-2.565-3.012l0.455-5.687
										C309.525,124.405,310.88,123.25,312.414,123.373z"/>
								</g>
								<g>
									<path style="fill:#E8A185;" d="M317.718,123.852L317.718,123.852c1.534,0.123,2.688,1.478,2.565,3.012l-0.224,2.801
										c-0.123,1.534-1.478,2.688-3.012,2.565l0,0c-1.534-0.123-2.688-1.478-2.565-3.012l0.224-2.801
										C314.829,124.884,316.185,123.73,317.718,123.852z"/>
								</g>
							</g>
						</g>
						<path style="fill:#E06A4B;" d="M303.494,132.998c-0.012,0-0.023-0.001-0.036-0.002c-0.275-0.019-0.483-0.258-0.463-0.534
							l0.625-8.913c0.019-0.275,0.251-0.491,0.534-0.463c0.275,0.019,0.483,0.258,0.463,0.534l-0.625,8.913
							C303.974,132.796,303.754,132.998,303.494,132.998z"/>
						<path style="fill:#E06A4B;" d="M309.326,133.345c-0.013,0-0.025-0.001-0.039-0.001c-0.275-0.021-0.481-0.261-0.46-0.537
							l0.625-8.183c0.021-0.275,0.257-0.482,0.537-0.46c0.275,0.021,0.481,0.261,0.46,0.537l-0.625,8.183
							C309.804,133.145,309.585,133.345,309.326,133.345z"/>
						<path style="fill:#E06A4B;" d="M314.787,132.325c-0.008,0-0.017,0-0.025,0c-0.276-0.014-0.488-0.248-0.475-0.524l0.313-6.441
							c0.014-0.275,0.252-0.488,0.524-0.475c0.276,0.014,0.488,0.248,0.475,0.524l-0.313,6.441
							C315.272,132.117,315.052,132.325,314.787,132.325z"/>
					</g>
				</g>
			</g>
			<g>
				<g>
					<path style="fill:#5C69AB;" d="M278.649,165.31l-23.886-22.43c-3.958-4.867-9.919-8.035-16.636-8.233l-36.724-1.079
						c-0.373,0-0.739,0.025-1.105,0.053l-0.041-0.056l-6.882,0.131c-10.123,0.193-19.454,6.152-23.276,15.528
						c-0.507,1.244-0.921,2.539-1.23,3.879l-6.369,28.771c-0.447,2.02,1.052,3.95,3.12,4.016l18.504,0.592l-4.163,53.316h82.93
						l-1.897-50.519l17.807-18.801C280.19,169.012,280.123,166.694,278.649,165.31z"/>
					<g>
						<path style="fill:#111111;" d="M250.06,75.763c-0.687-3.242-3.413-5.802-6.886-6.124c-0.361-0.033-0.716-0.033-1.067-0.017
							c-3.769-3.255-6.397-6.775-13.004-5.925c-2.547,0.328-4.914,1.64-6.363,3.761c-0.202,0.295-0.378,0.612-0.54,0.938
							c-0.13,0.263-3.5,0.641-3.948,0.765c-3.149,0.871-7.177,2.169-8.748,5.287c-0.695,1.38-0.915,2.934-0.972,4.488
							c-2.375,1.885-3.342,5.221-2.383,8.241l2.476,7.799c0.519-0.13,1.058-0.207,1.615-0.207h3.508h0.654
							c1.055,0.691,2.523,1.379,3.181,0.404c0.185-0.274,1.107-3.5,1.124-3.811c0.05-0.883,0.064-1.768,0.108-2.651
							c0.087-1.731-0.053-3.57,0.355-5.273c1.031,0.977,2.422,1.576,3.955,1.576h6.361c1.904,0,3.62-0.786,4.856-2.046
							c0.247-0.022,0.491-0.055,0.729-0.107c0.832,2.162,2.907,3.706,5.362,3.706h2.981c0.054,0,0.107-0.007,0.161-0.009
							c0.061,0.183,0.111,0.357,0.138,0.505c0.159,0.894,1.36,0.298,2.576-1.144c2.324-1.085,3.941-3.433,3.941-6.168v-3.988H250.06
							z"/>
						<g>
							<g>
								<path style="fill:#E8A185;" d="M240.432,86.567c-2.647,0-4.872-1.785-5.55-4.216c-1.246,1.617-3.197,2.663-5.396,2.663
									h-6.361c-2.459,0-4.553-1.542-5.382-3.709V94.77h-3.996h-3.508c-0.558,0-1.097,0.077-1.615,0.207
									c-2.902,0.728-5.07,3.359-5.07,6.479v0.652c0,3.677,3.008,6.686,6.686,6.686h1.784l-1.786,22.319
									c-0.522,6.526,4.344,12.239,10.87,12.761l1.153,0.092c6.525,0.522,12.239-4.344,12.761-10.87l0.673-8.407
									c5.898-0.098,10.651-4.902,10.651-10.823V87.743c0-0.604-0.062-1.193-0.157-1.77c-0.848,0.379-1.786,0.594-2.775,0.594
									H240.432z"/>
							</g>
							<g>
								<path style="fill:#E06A4B;" d="M209.468,104.357c-0.164,0-0.323-0.08-0.419-0.227c-0.151-0.231-0.085-0.541,0.146-0.692
									l1.805-1.177l-2.061-2.294c-0.185-0.205-0.168-0.521,0.038-0.706c0.204-0.184,0.521-0.168,0.706,0.038l2.452,2.729
									c0.098,0.108,0.143,0.254,0.124,0.399c-0.019,0.145-0.1,0.274-0.223,0.354l-2.294,1.496
									C209.657,104.331,209.562,104.357,209.468,104.357z"/>
								<g>
									<path style="fill:#E06A4B;" d="M235.639,105.407h-1.874c-0.276,0-0.5-0.224-0.5-0.5c0-0.276,0.224-0.5,0.5-0.5h1.874
										c0.527,0,1.023-0.231,1.362-0.635c0.338-0.403,0.48-0.932,0.389-1.451l-1.158-6.577c-0.048-0.272,0.134-0.531,0.406-0.579
										c0.271-0.047,0.531,0.134,0.579,0.406l1.158,6.577c0.143,0.81-0.079,1.637-0.608,2.267
										C237.237,105.045,236.462,105.407,235.639,105.407z"/>
									<g>
										<path style="fill:#111111;" d="M242.982,99.479c0.134,0.74-0.357,1.449-1.097,1.583c-0.74,0.134-1.449-0.357-1.583-1.097
											c-0.134-0.74,0.357-1.449,1.097-1.583C242.139,98.248,242.848,98.739,242.982,99.479z"/>
										<g>
											<g>
												<path style="fill:#E06A4B;" d="M234.454,117.545c-0.061,0.016-0.127,0.012-0.19-0.016
													c-0.063-0.029-1.563-0.687-2.675,0.491c-0.107,0.114-0.286,0.119-0.401,0.011c-0.114-0.107-0.119-0.287-0.012-0.401
													c1.397-1.477,3.305-0.626,3.324-0.618c0.142,0.065,0.204,0.233,0.139,0.375
													C234.603,117.469,234.533,117.524,234.454,117.545z"/>
											</g>
										</g>
										<g>
											<g>
												<g>
													<g>
														<g>
															<g>
																<path style="fill:#111111;" d="M222.962,94.77c0.707,0.182,1.552-0.036,2.38-0.2
																	c0.831-0.182,1.669-0.345,2.403-0.46c0.735-0.116,1.584-0.22,2.43-0.303c0.839-0.1,1.714-0.154,2.321-0.543
																	c0.588-0.366,0.725-1.17-0.171-1.992c-0.845-0.804-2.837-1.509-5.27-1.131c-2.428,0.389-4.076,1.669-4.605,2.689
																	C221.882,93.884,222.282,94.604,222.962,94.77z"/>
															</g>
														</g>
													</g>
													<g>
														<g>
															<g>
																<path style="fill:#111111;" d="M246.152,94.852c-0.494,0.145-1.073-0.023-1.642-0.149
																	c-0.57-0.14-1.146-0.265-1.65-0.353c-0.505-0.089-1.09-0.167-1.673-0.229c-0.578-0.075-1.181-0.115-1.592-0.418
																	c-0.398-0.285-0.472-0.916,0.167-1.564c0.605-0.634,1.999-1.194,3.673-0.906c1.67,0.297,2.778,1.295,3.118,2.095
																	C246.921,94.153,246.627,94.72,246.152,94.852z"/>
															</g>
														</g>
													</g>
												</g>
											</g>
										</g>
										<path style="fill:#111111;" d="M231.127,99.951c-0.062,0.821-0.777,1.436-1.598,1.374s-1.436-0.777-1.374-1.598
											c0.062-0.821,0.777-1.436,1.598-1.374C230.573,98.415,231.188,99.131,231.127,99.951z"/>
										<g>
											<path style="fill:#E8A185;" d="M228.103,101.402c0,0,1.331-0.957,2.622,0.184"/>
											<path style="fill:#E06A4B;" d="M230.725,102.085c-0.118,0-0.236-0.041-0.331-0.125c-0.95-0.839-1.897-0.224-2.002-0.15
												c-0.226,0.156-0.537,0.104-0.696-0.121c-0.159-0.224-0.108-0.533,0.115-0.693c0.573-0.412,1.986-0.896,3.245,0.214
												c0.207,0.183,0.227,0.499,0.044,0.706C231,102.028,230.863,102.085,230.725,102.085z"/>
										</g>
										<g>
											<path style="fill:#E8A185;" d="M240.582,101.306c0,0,1.205-0.54,2.317,0.024"/>
											<path style="fill:#E06A4B;" d="M242.899,101.83c-0.076,0-0.153-0.017-0.226-0.054c-0.878-0.446-1.879-0.018-1.889-0.012
												c-0.253,0.111-0.546-0.005-0.658-0.256c-0.111-0.251,0-0.545,0.252-0.658c0.058-0.026,1.438-0.629,2.748,0.035
												c0.246,0.125,0.345,0.425,0.22,0.672C243.257,101.729,243.081,101.83,242.899,101.83z"/>
										</g>
									</g>
									<path style="fill:#FFFFFF;" d="M226.894,105.978c0.463-0.308,1.079-0.232,1.49,0.144c0.748,0.685,2.375,1.899,4.706,2.137
										c0.572,0.058,0.868,0.724,0.622,1.244c-0.54,1.144-1.987,2.908-4.999,1.495
										C225.044,109.277,225.686,106.782,226.894,105.978z"/>
								</g>
								<path style="fill:#E06A4B;" d="M235.624,124.751c0,0-12.181,0.786-15.188-4.148c0,0,1.674,10.81,14.642,10.966
									L235.624,124.751z"/>
							</g>
						</g>
					</g>
				</g>
				<g>
					<path style="fill:#5C69AB;" d="M240.564,139.137l-2.799-7.194c-0.106-1.396-1.5-2.053-2.38-1.122l-10.267,10.736
						c-0.084,0.088-0.222,0.096-0.316,0.019l-15.219-12.443c-0.544-0.451-1.45-0.291-1.742,0.306l-4.257,8.728
						c-0.443,0.908-0.309,1.991,0.342,2.763l8.941,10.62c0.798,0.947,2.401,1.059,3.369,0.235l8.436-7.791
						c0.183-0.169,0.468-0.154,0.633,0.032l5.334,6.034c0.585,0.871,1.714,0.806,2.226-0.129l7.253-8.298
						C240.724,140.941,240.895,139.986,240.564,139.137z"/>
					<path style="fill:#111111;" d="M214.669,152.839c-0.085,0-0.171-0.003-0.256-0.011c-0.768-0.063-1.47-0.412-1.928-0.955
						l-8.941-10.621c-0.777-0.923-0.938-2.22-0.408-3.305l4.256-8.728c0.199-0.408,0.589-0.702,1.071-0.806
						c0.513-0.112,1.051,0.014,1.439,0.334l15.026,12.285l10.096-10.558c0.511-0.541,1.218-0.725,1.886-0.487
						c0.732,0.259,1.254,0.977,1.346,1.84l2.774,7.128c0.397,1.021,0.192,2.174-0.536,3.007l-7.22,8.259
						c-0.331,0.57-0.883,0.924-1.487,0.952c-0.603,0.027-1.194-0.284-1.564-0.834l-5.293-5.982l-8.355,7.795
						C216.053,152.599,215.373,152.839,214.669,152.839z M208.838,129.374c-0.054,0-0.109,0.006-0.164,0.018
						c-0.181,0.039-0.32,0.136-0.384,0.267l-4.256,8.728c-0.356,0.73-0.248,1.602,0.274,2.222l8.941,10.621
						c0.288,0.341,0.742,0.561,1.246,0.602c0.531,0.045,1.046-0.111,1.416-0.426l8.421-7.778c0.189-0.174,0.438-0.261,0.689-0.249
						c0.255,0.013,0.489,0.126,0.659,0.318l5.334,6.034c0.216,0.314,0.472,0.46,0.729,0.445c0.273-0.012,0.522-0.189,0.684-0.483
						l0.062-0.089l7.253-8.297c0.482-0.552,0.619-1.313,0.357-1.986l-2.832-7.337c-0.038-0.503-0.309-0.915-0.69-1.051
						c-0.293-0.103-0.587-0.02-0.827,0.234l-10.269,10.739c-0.262,0.275-0.697,0.301-0.992,0.061l-15.221-12.444
						C209.151,129.425,208.998,129.374,208.838,129.374z"/>
				</g>
			</g>
			<g>
				<g>
					<path style="fill:#EB8D2E;" d="M265.852,157.95h-21.791c-0.49,0-0.887,0.397-0.887,0.886v1.93c0,0.49,0.397,0.887,0.887,0.887
						h21.791c0.489,0,0.886-0.397,0.886-0.887v-1.93C266.738,158.347,266.341,157.95,265.852,157.95z"/>
					<polygon style="fill:#EB8D2E;" points="264.826,194.685 245.087,194.685 241.41,162.663 268.503,162.663 					"/>
					<path style="fill:#111111;" d="M268.005,166.144h-26.098c-1.444,0-2.615-1.171-2.615-2.615l0,0
						c0-1.445,1.171-2.615,2.615-2.615h26.098c1.444,0,2.615,1.171,2.615,2.615l0,0C270.621,164.973,269.45,166.144,268.005,166.144
						z"/>
					<circle style="fill:#F6EEE3;" cx="254.956" cy="176.835" r="6.159"/>
				</g>
				<g>
					<g>
						<path style="fill:#E8A185;" d="M268.816,181.125c0.042-2.731-2.152-3.209-4.343-3.105c1.491-0.364,2.759-1.165,2.526-3.008
							c-1.115-5.216-7.367-2.639-11.292-1.557c-1.815,0.643-3.483,1.21-5.045,1.73c0.727-1.755,1.455-3.531,1.519-5.418
							c0.021-0.607-0.065-1.291-0.538-1.673c-0.364-0.293-0.882-0.332-1.333-0.21c-0.451,0.122-0.849,0.385-1.233,0.651
							c-3.581,2.481-12.522,11.58-12.522,11.58c-0.897,1.103-1.712,2.299-2.443,3.541l-37.512,11.862l1.705-8.834l-31.298-0.921
							l-3.748,18.91c-1.606,14.165,12.34,25.013,25.674,19.971l53.141-20.96c1.385,0.068,2.664-0.048,3.625-0.494l15.622-6.775
							c2.937-1.1,4.205-4.927,1.853-5.383c2.424-0.244,4.995-1.379,4.39-4.311c-0.145-1.658-1.348-2.112-2.745-2.149
							C267.029,184.293,269.133,183.596,268.816,181.125z M261.228,184.912c0.286-0.05,0.619-0.085,0.982-0.116
							C261.851,184.845,261.517,184.889,261.228,184.912z"/>
						<path style="fill:#111111;" d="M196.75,195.247c-0.031,0-0.063-0.003-0.095-0.009c-0.271-0.052-0.449-0.314-0.396-0.585
							l1.635-8.472l4.076,0.033c0.004,0,0.008,0,0.013,0c0.779,0,1.415-0.606,1.451-1.385l1.077-22.952
							c0.013-0.276,0.244-0.495,0.523-0.476c0.276,0.013,0.489,0.247,0.476,0.523l-1.077,22.952
							c-0.062,1.323-1.139,2.365-2.471,2.338l-3.243-0.026l-1.478,7.654C197.194,195.081,196.985,195.247,196.75,195.247z"/>
						<path style="opacity:0.36;fill:#E06A4B;" d="M250.663,175.184l-8.501,3.659c0,0,8.078-6.375,9.673-6.897L250.663,175.184z"/>
					</g>
					<path style="fill:#E06A4B;" d="M259.256,180.135c-0.208,0-0.402-0.13-0.473-0.338c-0.089-0.261,0.05-0.545,0.311-0.635
						c0.533-0.183,5.235-1.787,6.172-1.837c0.262-0.04,0.511,0.196,0.526,0.472c0.015,0.275-0.197,0.511-0.473,0.526
						c-0.601,0.032-3.939,1.112-5.902,1.785C259.365,180.126,259.31,180.135,259.256,180.135z"/>
					<path style="fill:#E06A4B;" d="M191.039,197.977c-0.209,0-0.404-0.132-0.474-0.341c-0.088-0.262,0.053-0.545,0.315-0.633
						l10.546-3.536c0.261-0.086,0.545,0.053,0.633,0.315c0.088,0.262-0.053,0.545-0.315,0.633l-10.546,3.536
						C191.145,197.969,191.091,197.977,191.039,197.977z"/>
					<path style="fill:#E06A4B;" d="M260.502,186.54c-0.211,0-0.407-0.135-0.475-0.346c-0.085-0.263,0.059-0.544,0.322-0.629
						l4.777-1.544c0.264-0.085,0.545,0.06,0.629,0.322c0.085,0.263-0.059,0.544-0.322,0.629l-4.777,1.544
						C260.605,186.532,260.553,186.54,260.502,186.54z"/>
					<path style="fill:#E06A4B;" d="M260.582,192.306c-0.215,0-0.414-0.14-0.479-0.357c-0.079-0.265,0.071-0.543,0.336-0.622
						l2.592-0.775c0.261-0.079,0.543,0.071,0.622,0.336c0.079,0.265-0.071,0.543-0.336,0.622l-2.592,0.775
						C260.678,192.299,260.63,192.306,260.582,192.306z"/>
				</g>
			</g>
		</g>
	</g>
</g>
</svg>
